<svg width="13" height="12" viewBox="0 0 13 12" fill="none" xmlns="http://www.w3.org/2000/svg">
<path d="M1.88281 11.2539C1.57422 11.2539 1.31055 11.1895 1.0918 11.0605C0.873047 10.9316 0.703125 10.7559 0.582031 10.5332C0.464844 10.3145 0.40625 10.0703 0.40625 9.80078C0.40625 9.51953 0.480469 9.25 0.628906 8.99219L5.25195 0.900391C5.38867 0.654297 5.56836 0.472656 5.79102 0.355469C6.01758 0.234375 6.25391 0.173828 6.5 0.173828C6.74609 0.173828 6.98047 0.234375 7.20312 0.355469C7.42969 0.472656 7.61133 0.654297 7.74805 0.900391L12.3711 8.99219C12.4453 9.12109 12.5 9.25586 12.5352 9.39648C12.5742 9.5332 12.5938 9.66797 12.5938 9.80078C12.5938 10.0703 12.5352 10.3145 12.418 10.5332C12.3008 10.7559 12.1309 10.9316 11.9082 11.0605C11.6895 11.1895 11.4277 11.2539 11.123 11.2539H1.88281ZM6.50586 7.38086C6.74805 7.38086 6.87109 7.25 6.875 6.98828L6.94531 3.79492C6.94531 3.66992 6.90234 3.56641 6.81641 3.48438C6.73438 3.40234 6.63086 3.36133 6.50586 3.36133C6.37305 3.36133 6.26562 3.40234 6.18359 3.48438C6.10547 3.56641 6.06641 3.66797 6.06641 3.78906L6.13086 6.98828C6.13477 7.25 6.25977 7.38086 6.50586 7.38086ZM6.50586 9.23242C6.6582 9.23242 6.78906 9.17969 6.89844 9.07422C7.01172 8.96875 7.06836 8.8418 7.06836 8.69336C7.06836 8.54492 7.01172 8.41797 6.89844 8.3125C6.78906 8.20703 6.6582 8.1543 6.50586 8.1543C6.35352 8.1543 6.22266 8.20703 6.11328 8.3125C6.00391 8.41797 5.94922 8.54492 5.94922 8.69336C5.94922 8.8418 6.00391 8.96875 6.11328 9.07422C6.22656 9.17969 6.35742 9.23242 6.50586 9.23242Z" fill="#FF9153"/>
</svg>
