<svg width="13" height="13" viewBox="0 0 13 13" fill="none" xmlns="http://www.w3.org/2000/svg">
<path d="M0.505859 8.9375C0.505859 8.3125 0.611328 7.74805 0.822266 7.24414C1.03711 6.73633 1.32617 6.33594 1.68945 6.04297C2.05664 5.75 2.46875 5.60352 2.92578 5.60352H3.73438C3.54688 5.8457 3.36914 6.12695 3.20117 6.44727C3.03711 6.76758 2.90234 7.13086 2.79688 7.53711C2.69531 7.93945 2.64453 8.38672 2.64453 8.87891C2.64062 9.5625 2.75977 10.1953 3.00195 10.7773C3.24805 11.3555 3.63672 11.8496 4.16797 12.2598H3.14844C2.64453 12.2598 2.19336 12.1094 1.79492 11.8086C1.39648 11.5078 1.08203 11.1074 0.851562 10.6074C0.621094 10.1035 0.505859 9.54688 0.505859 8.9375ZM3.5 8.89062C3.5 8.42188 3.54102 8.00195 3.62305 7.63086C3.70508 7.25586 3.83203 6.90234 4.00391 6.57031C4.17578 6.23438 4.39258 5.89258 4.6543 5.54492C5.10742 4.94336 5.60742 4.28516 6.1543 3.57031C6.70117 2.85547 7.19727 2.06641 7.64258 1.20312C7.76758 0.960938 7.89648 0.771484 8.0293 0.634766C8.16211 0.498047 8.33984 0.429688 8.5625 0.429688C8.8125 0.429688 9.02148 0.511719 9.18945 0.675781C9.35742 0.839844 9.44141 1.06836 9.44141 1.36133C9.44141 1.62695 9.38867 1.91406 9.2832 2.22266C9.18164 2.52734 9.06445 2.83203 8.93164 3.13672C8.79883 3.44141 8.68164 3.72852 8.58008 3.99805C8.48242 4.26758 8.43359 4.50195 8.43359 4.70117C8.43359 4.9082 8.50977 5.07227 8.66211 5.19336C8.81836 5.31445 9.02344 5.375 9.27734 5.375H11.3926C11.5996 5.375 11.7852 5.42383 11.9492 5.52148C12.1133 5.61914 12.2441 5.75195 12.3418 5.91992C12.4395 6.08789 12.4883 6.27344 12.4883 6.47656C12.4883 6.64453 12.4609 6.79688 12.4062 6.93359C12.3516 7.06641 12.2773 7.17578 12.1836 7.26172C12.1055 7.33203 12.0996 7.39844 12.166 7.46094C12.2402 7.53906 12.2988 7.64648 12.3418 7.7832C12.3887 7.91602 12.4121 8.05469 12.4121 8.19922C12.4121 8.39844 12.3691 8.57812 12.2832 8.73828C12.1973 8.89844 12.0859 9.02344 11.9492 9.11328C11.8594 9.16406 11.8438 9.23047 11.9023 9.3125C12.0391 9.49609 12.1074 9.72266 12.1074 9.99219C12.1074 10.2266 12.041 10.4316 11.9082 10.6074C11.7793 10.7793 11.6211 10.9082 11.4336 10.9941C11.3672 11.0215 11.3555 11.0723 11.3984 11.1465C11.4336 11.209 11.4629 11.2832 11.4863 11.3691C11.5137 11.4551 11.5273 11.5547 11.5273 11.668C11.5273 11.957 11.4297 12.1836 11.2344 12.3477C11.043 12.5117 10.8203 12.625 10.5664 12.6875C10.4023 12.7305 10.1758 12.7637 9.88672 12.7871C9.59766 12.8145 9.26172 12.8281 8.87891 12.8281H8.05859C7.35938 12.8281 6.72852 12.7285 6.16602 12.5293C5.60352 12.3301 5.12305 12.0527 4.72461 11.6973C4.32617 11.3418 4.02148 10.9258 3.81055 10.4492C3.59961 9.96875 3.49609 9.44922 3.5 8.89062Z" fill="#3BC5BE"/>
</svg>
