<svg width="12" height="11" viewBox="0 0 12 11" fill="none" xmlns="http://www.w3.org/2000/svg">
<path d="M4.78711 10.9961C4.50586 10.9961 4.26562 10.8711 4.06641 10.6211L1.03125 6.82422C0.957031 6.73438 0.902344 6.64648 0.867188 6.56055C0.835938 6.47461 0.820312 6.38672 0.820312 6.29688C0.820312 6.09375 0.886719 5.92578 1.01953 5.79297C1.15625 5.66016 1.32812 5.59375 1.53516 5.59375C1.77344 5.59375 1.97461 5.70117 2.13867 5.91602L4.76367 9.28516L9.84961 1.20508C9.93945 1.06836 10.0312 0.972656 10.125 0.917969C10.2188 0.859375 10.3398 0.830078 10.4883 0.830078C10.6914 0.830078 10.8574 0.894531 10.9863 1.02344C11.1152 1.14844 11.1797 1.3125 11.1797 1.51562C11.1797 1.59766 11.166 1.68164 11.1387 1.76758C11.1113 1.84961 11.0684 1.9375 11.0098 2.03125L5.50195 10.6152C5.33008 10.8691 5.0918 10.9961 4.78711 10.9961Z" fill="white"/>
</svg>
