<svg width="223" height="254" viewBox="0 0 223 254" fill="none" xmlns="http://www.w3.org/2000/svg">
<g clip-path="url(#clip0_46_1641)">
<rect width="223" height="254" rx="10" fill="#FF6464"/>
<path d="M23.488 39.264C25.184 39.264 26.52 38.736 27.496 37.68C28.488 36.608 28.984 35.16 28.984 33.336C28.984 31.512 28.488 30.072 27.496 29.016C26.52 27.944 25.184 27.408 23.488 27.408L21.328 27.432V39.24L23.488 39.264ZM23.56 24.24C25.32 24.24 26.888 24.624 28.264 25.392C29.64 26.16 30.712 27.24 31.48 28.632C32.248 30.008 32.632 31.576 32.632 33.336C32.632 35.096 32.248 36.672 31.48 38.064C30.712 39.44 29.64 40.512 28.264 41.28C26.888 42.048 25.32 42.432 23.56 42.432H17.68V24.24H23.56ZM34.8792 30.552H38.4792V32.232C38.8632 31.672 39.3512 31.248 39.9432 30.96C40.5352 30.672 41.0712 30.544 41.5512 30.576V33.792C40.9112 33.744 40.3592 33.88 39.8952 34.2C39.4312 34.504 39.0792 34.896 38.8392 35.376C38.5992 35.856 38.4792 36.328 38.4792 36.792V42.48H34.8792V30.552ZM48.7797 42.504C47.6917 42.504 46.7397 42.256 45.9237 41.76C45.1077 41.248 44.4757 40.544 44.0277 39.648C43.5797 38.736 43.3557 37.696 43.3557 36.528C43.3557 35.36 43.5797 34.328 44.0277 33.432C44.4757 32.52 45.1077 31.816 45.9237 31.32C46.7397 30.808 47.6917 30.552 48.7797 30.552C49.3397 30.552 49.9077 30.672 50.4837 30.912C51.0597 31.136 51.5317 31.504 51.8997 32.016V30.528H55.5477V42.48H51.8997V41.064C51.5157 41.56 51.0357 41.92 50.4597 42.144C49.8997 42.384 49.3397 42.504 48.7797 42.504ZM49.3557 39.552C50.0597 39.552 50.6517 39.264 51.1317 38.688C51.6277 38.112 51.8837 37.392 51.8997 36.528C51.8837 35.664 51.6277 34.944 51.1317 34.368C50.6517 33.792 50.0597 33.504 49.3557 33.504C48.6037 33.504 48.0197 33.768 47.6037 34.296C47.2037 34.824 47.0037 35.568 47.0037 36.528C47.0037 37.488 47.2037 38.232 47.6037 38.76C48.0197 39.288 48.6037 39.552 49.3557 39.552ZM60.2031 42.48V33.648H58.1391V30.456H60.2031V28.728C60.2031 27.544 60.5711 26.52 61.3071 25.656C62.0431 24.792 62.9951 24.28 64.1631 24.12C64.4191 24.088 64.6191 24.072 64.7631 24.072C65.3231 24.072 65.8831 24.16 66.4431 24.336C67.0191 24.496 67.4271 24.712 67.6671 24.984L66.1071 27.744C65.6911 27.408 65.3231 27.24 65.0031 27.24C64.6511 27.24 64.3711 27.368 64.1631 27.624C63.9551 27.88 63.8511 28.248 63.8511 28.728V30.456H67.1631V33.648H63.8511V42.48H60.2031ZM71.341 33.6H68.965V30.48H71.341V26.232H74.989V30.48H77.797V33.6H74.989V42.48H71.341V33.6ZM86.5623 24.24H93.3303C94.2903 24.24 95.1463 24.448 95.8983 24.864C96.6663 25.28 97.2583 25.864 97.6743 26.616C98.1063 27.368 98.3223 28.224 98.3223 29.184C98.3223 29.728 98.1943 30.296 97.9383 30.888C97.6983 31.48 97.3703 32 96.9543 32.448L97.6503 32.904C98.3063 33.336 98.8423 33.944 99.2583 34.728C99.6903 35.512 99.9062 36.304 99.9062 37.104C99.9062 38.128 99.6903 39.048 99.2583 39.864C98.8423 40.664 98.2503 41.296 97.4823 41.76C96.7303 42.208 95.8743 42.432 94.9143 42.432H86.5623V24.24ZM94.2423 39.312C94.8663 39.312 95.3543 39.12 95.7063 38.736C96.0743 38.336 96.2583 37.792 96.2583 37.104C96.2583 36.352 96.0743 35.76 95.7063 35.328C95.3543 34.896 94.8663 34.68 94.2423 34.68H90.2103V39.312H94.2423ZM92.8743 31.56C93.4343 31.544 93.8743 31.36 94.1943 31.008C94.5303 30.64 94.6983 30.152 94.6983 29.544C94.6983 28.872 94.5303 28.344 94.1943 27.96C93.8583 27.56 93.3943 27.36 92.8023 27.36H90.2103V31.56H92.8743ZM107.617 42.48C106.497 42.48 105.497 42.232 104.617 41.736C103.737 41.224 103.049 40.52 102.553 39.624C102.057 38.712 101.809 37.68 101.809 36.528C101.809 35.36 102.057 34.328 102.553 33.432C103.049 32.52 103.737 31.808 104.617 31.296C105.497 30.784 106.497 30.528 107.617 30.528C109.921 30.528 111.609 31.6 112.681 33.744C113.049 34.448 113.233 35.456 113.233 36.768L113.209 37.752H105.217C105.361 38.28 105.665 38.704 106.129 39.024C106.609 39.328 107.113 39.48 107.641 39.48C108.217 39.48 108.681 39.384 109.033 39.192C109.401 38.984 109.657 38.744 109.801 38.472L112.801 39.6C112.481 40.384 111.873 41.064 110.977 41.64C110.097 42.2 108.977 42.48 107.617 42.48ZM109.873 35.616C109.729 34.944 109.465 34.424 109.081 34.056C108.697 33.688 108.209 33.504 107.617 33.504C107.009 33.504 106.497 33.688 106.081 34.056C105.665 34.424 105.385 34.944 105.241 35.616H109.873ZM121.398 42.48C120.278 42.48 119.278 42.232 118.398 41.736C117.518 41.224 116.83 40.52 116.334 39.624C115.838 38.712 115.59 37.68 115.59 36.528C115.59 35.36 115.838 34.328 116.334 33.432C116.83 32.52 117.518 31.808 118.398 31.296C119.278 30.784 120.278 30.528 121.398 30.528C123.702 30.528 125.39 31.6 126.462 33.744C126.83 34.448 127.014 35.456 127.014 36.768L126.99 37.752H118.998C119.142 38.28 119.446 38.704 119.91 39.024C120.39 39.328 120.894 39.48 121.422 39.48C121.998 39.48 122.462 39.384 122.814 39.192C123.182 38.984 123.438 38.744 123.582 38.472L126.582 39.6C126.262 40.384 125.654 41.064 124.758 41.64C123.878 42.2 122.758 42.48 121.398 42.48ZM123.654 35.616C123.51 34.944 123.246 34.424 122.862 34.056C122.478 33.688 121.99 33.504 121.398 33.504C120.79 33.504 120.278 33.688 119.862 34.056C119.446 34.424 119.166 34.944 119.022 35.616H123.654ZM129.473 30.552H133.073V32.232C133.457 31.672 133.945 31.248 134.537 30.96C135.129 30.672 135.665 30.544 136.145 30.576V33.792C135.505 33.744 134.953 33.88 134.489 34.2C134.025 34.504 133.673 34.896 133.433 35.376C133.193 35.856 133.073 36.328 133.073 36.792V42.48H129.473V30.552Z" fill="white"/>
<path d="M21.824 214.24C20.896 214.24 20.0907 214.037 19.408 213.632C18.7253 213.227 18.2027 212.667 17.84 211.952C17.488 211.227 17.312 210.395 17.312 209.456V202.32H19.008V209.456C19.008 210.448 19.248 211.232 19.728 211.808C20.208 212.384 20.9067 212.672 21.824 212.672C22.7413 212.672 23.44 212.384 23.92 211.808C24.4 211.232 24.64 210.448 24.64 209.456V202.32H26.352V209.456C26.352 210.395 26.1707 211.227 25.808 211.952C25.4453 212.667 24.9227 213.227 24.24 213.632C23.5573 214.037 22.752 214.24 21.824 214.24ZM33.9461 209.936C33.9461 209.328 33.7968 208.853 33.4981 208.512C33.1995 208.16 32.7888 207.984 32.2661 207.984C31.7435 207.995 31.3061 208.187 30.9541 208.56C30.6021 208.923 30.4315 209.381 30.4421 209.936V214.144H28.7461V206.512H30.4421V207.552C30.6875 207.253 30.9968 207.008 31.3701 206.816C31.7435 206.624 32.1115 206.528 32.4741 206.528C32.9968 206.528 33.4981 206.645 33.9781 206.88C34.4581 207.115 34.8528 207.483 35.1621 207.984C35.4821 208.485 35.6421 209.115 35.6421 209.872V214.144H33.9461V209.936ZM38.6723 214.144V207.984H37.3283V206.48H38.6723V204.88C38.6723 204.4 38.7789 203.963 38.9923 203.568C39.2163 203.173 39.5203 202.864 39.9043 202.64C40.2883 202.416 40.7256 202.304 41.2163 202.304C41.5363 202.304 41.8563 202.363 42.1763 202.48C42.4963 202.587 42.7416 202.725 42.9123 202.896L42.0483 204.144C41.7816 203.92 41.5363 203.808 41.3123 203.808C41.0349 203.808 40.8056 203.904 40.6243 204.096C40.4536 204.288 40.3683 204.549 40.3683 204.88V206.48H42.5123V207.984H40.3683V214.144H38.6723ZM47.169 212.752C47.7663 212.752 48.2463 212.533 48.609 212.096C48.9717 211.659 49.153 211.077 49.153 210.352C49.153 209.637 48.9717 209.061 48.609 208.624C48.2463 208.176 47.7663 207.952 47.169 207.952C46.5717 207.952 46.0917 208.171 45.729 208.608C45.3663 209.045 45.185 209.627 45.185 210.352C45.185 211.077 45.3663 211.659 45.729 212.096C46.0917 212.533 46.5717 212.752 47.169 212.752ZM47.169 206.496C47.8837 206.496 48.5183 206.661 49.073 206.992C49.6277 207.323 50.0597 207.781 50.369 208.368C50.689 208.944 50.849 209.605 50.849 210.352C50.849 211.088 50.689 211.749 50.369 212.336C50.0597 212.923 49.6277 213.381 49.073 213.712C48.5183 214.043 47.8837 214.208 47.169 214.208C46.4543 214.208 45.8197 214.043 45.265 213.712C44.7103 213.381 44.273 212.923 43.953 212.336C43.6437 211.749 43.489 211.088 43.489 210.352C43.489 209.605 43.6437 208.944 43.953 208.368C44.273 207.781 44.7103 207.323 45.265 206.992C45.8197 206.661 46.4543 206.496 47.169 206.496ZM52.4943 206.512H54.1903V207.632C54.4463 207.269 54.7876 206.981 55.2143 206.768C55.6409 206.555 56.0783 206.459 56.5263 206.48V208.048C56.0889 208.027 55.6889 208.128 55.3263 208.352C54.9743 208.565 54.6969 208.853 54.4943 209.216C54.2916 209.579 54.1903 209.957 54.1903 210.352V214.144H52.4943V206.512ZM59.2999 207.968H57.8599V206.496H59.2999V203.824H60.9959V206.496H62.8039V207.968H60.9959V214.144H59.2999V207.968ZM66.1144 210.864C66.1144 211.44 66.269 211.899 66.5784 212.24C66.8877 212.581 67.2984 212.752 67.8104 212.752C68.3544 212.752 68.7917 212.587 69.1224 212.256C69.453 211.915 69.613 211.456 69.6024 210.88V206.512H71.3144V214.144H69.6024V213.264C69.3677 213.552 69.069 213.781 68.7064 213.952C68.3437 214.123 67.9704 214.208 67.5864 214.208C66.9784 214.208 66.4344 214.069 65.9544 213.792C65.4744 213.515 65.0957 213.131 64.8184 212.64C64.5517 212.139 64.4184 211.568 64.4184 210.928V206.512H66.1144V210.864ZM78.6961 209.936C78.6961 209.328 78.5468 208.853 78.2481 208.512C77.9495 208.16 77.5388 207.984 77.0161 207.984C76.4935 207.995 76.0561 208.187 75.7041 208.56C75.3521 208.923 75.1815 209.381 75.1921 209.936V214.144H73.4961V206.512H75.1921V207.552C75.4375 207.253 75.7468 207.008 76.1201 206.816C76.4935 206.624 76.8615 206.528 77.2241 206.528C77.7468 206.528 78.2481 206.645 78.7281 206.88C79.2081 207.115 79.6028 207.483 79.9121 207.984C80.2321 208.485 80.3921 209.115 80.3921 209.872V214.144H78.6961V209.936ZM85.73 214.208C85.0367 214.208 84.4127 214.043 83.858 213.712C83.314 213.381 82.8873 212.928 82.578 212.352C82.2687 211.765 82.114 211.104 82.114 210.368C82.114 209.632 82.2687 208.976 82.578 208.4C82.8873 207.813 83.314 207.355 83.858 207.024C84.4127 206.693 85.0367 206.528 85.73 206.528C86.1247 206.528 86.514 206.619 86.898 206.8C87.282 206.981 87.6233 207.248 87.922 207.6V206.512H89.618V214.144H87.922V213.12C87.634 213.483 87.298 213.755 86.914 213.936C86.53 214.117 86.1353 214.208 85.73 214.208ZM85.842 212.768C86.2153 212.768 86.562 212.667 86.882 212.464C87.202 212.251 87.458 211.963 87.65 211.6C87.842 211.227 87.938 210.816 87.938 210.368C87.938 209.92 87.842 209.515 87.65 209.152C87.458 208.779 87.202 208.491 86.882 208.288C86.562 208.075 86.2153 207.968 85.842 207.968C85.234 207.968 84.7433 208.187 84.37 208.624C83.9967 209.061 83.81 209.643 83.81 210.368C83.81 211.083 83.9967 211.664 84.37 212.112C84.7433 212.549 85.234 212.768 85.842 212.768ZM92.5811 207.968H91.1411V206.496H92.5811V203.824H94.2771V206.496H96.0851V207.968H94.2771V214.144H92.5811V207.968ZM100.966 214.176C100.251 214.176 99.6165 214.016 99.0619 213.696C98.5072 213.365 98.0699 212.912 97.7499 212.336C97.4405 211.749 97.2859 211.088 97.2859 210.352C97.2859 209.605 97.4405 208.944 97.7499 208.368C98.0699 207.781 98.5072 207.328 99.0619 207.008C99.6165 206.677 100.251 206.512 100.966 206.512C101.958 206.512 102.699 206.763 103.19 207.264C103.681 207.755 103.995 208.192 104.134 208.576C104.358 209.099 104.47 209.723 104.47 210.448L104.454 211.008H98.9499C99.0459 211.52 99.2859 211.936 99.6699 212.256C100.054 212.576 100.486 212.736 100.966 212.736C101.51 212.736 101.931 212.629 102.23 212.416C102.529 212.203 102.742 211.989 102.87 211.776L104.23 212.384C104.017 212.875 103.627 213.296 103.062 213.648C102.507 214 101.809 214.176 100.966 214.176ZM102.854 209.664C102.769 209.152 102.571 208.741 102.262 208.432C101.953 208.112 101.521 207.952 100.966 207.952C100.465 207.952 100.027 208.112 99.6539 208.432C99.2805 208.752 99.0459 209.163 98.9499 209.664H102.854ZM107.83 202.704V214.128H106.134V202.704H107.83ZM110.895 217.456L112.559 213.504L109.487 206.512H111.359L113.455 211.568L115.471 206.512H117.311L114.463 213.376L112.751 217.456H110.895ZM119.887 216.208H118.623L119.231 212.528H120.975L119.887 216.208ZM29.28 233.128H27.696L24.928 224.248L22.32 233.128H20.72L17.12 221.32H18.896L21.52 230.088L24.016 221.336H25.824L28.384 230.088L30.784 221.32H32.56L29.28 233.128ZM36.5738 233.208C35.8804 233.208 35.2564 233.043 34.7018 232.712C34.1578 232.381 33.7311 231.928 33.4218 231.352C33.1124 230.765 32.9578 230.104 32.9578 229.368C32.9578 228.632 33.1124 227.976 33.4218 227.4C33.7311 226.813 34.1578 226.355 34.7018 226.024C35.2564 225.693 35.8804 225.528 36.5738 225.528C36.9684 225.528 37.3578 225.619 37.7418 225.8C38.1258 225.981 38.4671 226.248 38.7658 226.6V225.512H40.4618V233.144H38.7658V232.12C38.4778 232.483 38.1418 232.755 37.7578 232.936C37.3738 233.117 36.9791 233.208 36.5738 233.208ZM36.6858 231.768C37.0591 231.768 37.4058 231.667 37.7258 231.464C38.0458 231.251 38.3018 230.963 38.4938 230.6C38.6858 230.227 38.7818 229.816 38.7818 229.368C38.7818 228.92 38.6858 228.515 38.4938 228.152C38.3018 227.779 38.0458 227.491 37.7258 227.288C37.4058 227.075 37.0591 226.968 36.6858 226.968C36.0778 226.968 35.5871 227.187 35.2138 227.624C34.8404 228.061 34.6538 228.643 34.6538 229.368C34.6538 230.083 34.8404 230.664 35.2138 231.112C35.5871 231.549 36.0778 231.768 36.6858 231.768ZM44.4764 225.496V233.128H42.7804V225.496H44.4764ZM43.6284 221.688C43.9057 221.688 44.135 221.779 44.3164 221.96C44.4977 222.141 44.5884 222.371 44.5884 222.648C44.5884 222.925 44.4977 223.155 44.3164 223.336C44.135 223.517 43.9057 223.608 43.6284 223.608C43.351 223.608 43.1217 223.517 42.9404 223.336C42.759 223.155 42.6684 222.925 42.6684 222.648C42.6684 222.371 42.759 222.141 42.9404 221.96C43.1217 221.779 43.351 221.688 43.6284 221.688ZM47.7999 226.968H46.3599V225.496H47.7999V222.824H49.4959V225.496H51.3039V226.968H49.4959V233.144H47.7999V226.968ZM57.9379 233.144V226.984H56.5939V225.48H57.9379V223.88C57.9379 223.4 58.0445 222.963 58.2579 222.568C58.4819 222.173 58.7859 221.864 59.1699 221.64C59.5539 221.416 59.9912 221.304 60.4819 221.304C60.8019 221.304 61.1219 221.363 61.4419 221.48C61.7619 221.587 62.0072 221.725 62.1779 221.896L61.3139 223.144C61.0472 222.92 60.8019 222.808 60.5779 222.808C60.3005 222.808 60.0712 222.904 59.8899 223.096C59.7192 223.288 59.6339 223.549 59.6339 223.88V225.48H61.7779V226.984H59.6339V233.144H57.9379ZM66.4346 231.752C67.032 231.752 67.512 231.533 67.8746 231.096C68.2373 230.659 68.4186 230.077 68.4186 229.352C68.4186 228.637 68.2373 228.061 67.8746 227.624C67.512 227.176 67.032 226.952 66.4346 226.952C65.8373 226.952 65.3573 227.171 64.9946 227.608C64.632 228.045 64.4506 228.627 64.4506 229.352C64.4506 230.077 64.632 230.659 64.9946 231.096C65.3573 231.533 65.8373 231.752 66.4346 231.752ZM66.4346 225.496C67.1493 225.496 67.784 225.661 68.3386 225.992C68.8933 226.323 69.3253 226.781 69.6346 227.368C69.9546 227.944 70.1146 228.605 70.1146 229.352C70.1146 230.088 69.9546 230.749 69.6346 231.336C69.3253 231.923 68.8933 232.381 68.3386 232.712C67.784 233.043 67.1493 233.208 66.4346 233.208C65.72 233.208 65.0853 233.043 64.5306 232.712C63.976 232.381 63.5386 231.923 63.2186 231.336C62.9093 230.749 62.7546 230.088 62.7546 229.352C62.7546 228.605 62.9093 227.944 63.2186 227.368C63.5386 226.781 63.976 226.323 64.5306 225.992C65.0853 225.661 65.72 225.496 66.4346 225.496ZM71.7599 225.512H73.4559V226.632C73.7119 226.269 74.0532 225.981 74.4799 225.768C74.9065 225.555 75.3439 225.459 75.7919 225.48V227.048C75.3545 227.027 74.9545 227.128 74.5919 227.352C74.2399 227.565 73.9625 227.853 73.7599 228.216C73.5572 228.579 73.4559 228.957 73.4559 229.352V233.144H71.7599V225.512ZM85.949 233.24C85.021 233.24 84.2157 233.037 83.533 232.632C82.8503 232.227 82.3277 231.667 81.965 230.952C81.613 230.227 81.437 229.395 81.437 228.456V221.32H83.133V228.456C83.133 229.448 83.373 230.232 83.853 230.808C84.333 231.384 85.0317 231.672 85.949 231.672C86.8663 231.672 87.565 231.384 88.045 230.808C88.525 230.232 88.765 229.448 88.765 228.456V221.32H90.477V228.456C90.477 229.395 90.2957 230.227 89.933 230.952C89.5703 231.667 89.0477 232.227 88.365 232.632C87.6823 233.037 86.877 233.24 85.949 233.24ZM98.0711 228.936C98.0711 228.328 97.9218 227.853 97.6231 227.512C97.3245 227.16 96.9138 226.984 96.3911 226.984C95.8685 226.995 95.4311 227.187 95.0791 227.56C94.7271 227.923 94.5565 228.381 94.5671 228.936V233.144H92.8711V225.512H94.5671V226.552C94.8125 226.253 95.1218 226.008 95.4951 225.816C95.8685 225.624 96.2365 225.528 96.5991 225.528C97.1218 225.528 97.6231 225.645 98.1031 225.88C98.5831 226.115 98.9778 226.483 99.2871 226.984C99.6071 227.485 99.7671 228.115 99.7671 228.872V233.144H98.0711V228.936ZM102.566 226.968H101.126V225.496H102.566V222.824H104.262V225.496H106.07V226.968H104.262V233.144H102.566V226.968ZM109.508 225.496V233.128H107.812V225.496H109.508ZM108.66 221.688C108.937 221.688 109.166 221.779 109.348 221.96C109.529 222.141 109.62 222.371 109.62 222.648C109.62 222.925 109.529 223.155 109.348 223.336C109.166 223.517 108.937 223.608 108.66 223.608C108.382 223.608 108.153 223.517 107.972 223.336C107.79 223.155 107.7 222.925 107.7 222.648C107.7 222.371 107.79 222.141 107.972 221.96C108.153 221.779 108.382 221.688 108.66 221.688ZM113.439 221.704V233.128H111.743V221.704H113.439ZM130.06 233.128H128.252L127.068 229.912H122.22L120.988 233.128H119.18L123.644 221.32H125.676L130.06 233.128ZM126.508 228.44L124.668 223.464L122.764 228.44H126.508ZM132.282 233.144V226.984H130.938V225.48H132.282V223.88C132.282 223.4 132.388 222.963 132.602 222.568C132.826 222.173 133.13 221.864 133.514 221.64C133.898 221.416 134.335 221.304 134.826 221.304C135.146 221.304 135.466 221.363 135.786 221.48C136.106 221.587 136.351 221.725 136.522 221.896L135.658 223.144C135.391 222.92 135.146 222.808 134.922 222.808C134.644 222.808 134.415 222.904 134.234 223.096C134.063 223.288 133.978 223.549 133.978 223.88V225.48H136.122V226.984H133.978V233.144H132.282ZM139.097 226.968H137.657V225.496H139.097V222.824H140.793V225.496H142.601V226.968H140.793V233.144H139.097V226.968ZM147.482 233.176C146.767 233.176 146.132 233.016 145.578 232.696C145.023 232.365 144.586 231.912 144.266 231.336C143.956 230.749 143.802 230.088 143.802 229.352C143.802 228.605 143.956 227.944 144.266 227.368C144.586 226.781 145.023 226.328 145.578 226.008C146.132 225.677 146.767 225.512 147.482 225.512C148.474 225.512 149.215 225.763 149.706 226.264C150.196 226.755 150.511 227.192 150.65 227.576C150.874 228.099 150.986 228.723 150.986 229.448L150.97 230.008H145.466C145.562 230.52 145.802 230.936 146.186 231.256C146.57 231.576 147.002 231.736 147.482 231.736C148.026 231.736 148.447 231.629 148.746 231.416C149.044 231.203 149.258 230.989 149.386 230.776L150.746 231.384C150.532 231.875 150.143 232.296 149.578 232.648C149.023 233 148.324 233.176 147.482 233.176ZM149.37 228.664C149.284 228.152 149.087 227.741 148.778 227.432C148.468 227.112 148.036 226.952 147.482 226.952C146.98 226.952 146.543 227.112 146.17 227.432C145.796 227.752 145.562 228.163 145.466 228.664H149.37ZM152.697 225.512H154.393V226.632C154.649 226.269 154.991 225.981 155.417 225.768C155.844 225.555 156.281 225.459 156.729 225.48V227.048C156.292 227.027 155.892 227.128 155.529 227.352C155.177 227.565 154.9 227.853 154.697 228.216C154.495 228.579 154.393 228.957 154.393 229.352V233.144H152.697V225.512ZM162.343 221.32H166.279C166.897 221.32 167.452 221.459 167.943 221.736C168.433 222.003 168.817 222.381 169.095 222.872C169.372 223.363 169.51 223.917 169.51 224.536C169.51 224.899 169.42 225.277 169.239 225.672C169.068 226.067 168.839 226.413 168.551 226.712L168.967 226.968C169.415 227.256 169.777 227.661 170.055 228.184C170.343 228.707 170.487 229.235 170.487 229.768C170.487 230.419 170.348 231 170.071 231.512C169.793 232.013 169.409 232.408 168.919 232.696C168.428 232.984 167.868 233.128 167.239 233.128H162.343V221.32ZM167.063 231.64C167.585 231.64 168.007 231.469 168.327 231.128C168.647 230.787 168.807 230.339 168.807 229.784C168.807 229.187 168.647 228.707 168.327 228.344C168.007 227.971 167.585 227.784 167.063 227.784H164.039V231.64H167.063ZM166.311 226.312C166.769 226.291 167.137 226.125 167.415 225.816C167.703 225.507 167.847 225.107 167.847 224.616C167.847 224.072 167.687 223.635 167.367 223.304C167.057 222.973 166.647 222.808 166.135 222.808H164.039V226.312H166.311ZM174.226 225.496V233.128H172.53V225.496H174.226ZM173.378 221.688C173.656 221.688 173.885 221.779 174.066 221.96C174.248 222.141 174.338 222.371 174.338 222.648C174.338 222.925 174.248 223.155 174.066 223.336C173.885 223.517 173.656 223.608 173.378 223.608C173.101 223.608 172.872 223.517 172.69 223.336C172.509 223.155 172.418 222.925 172.418 222.648C172.418 222.371 172.509 222.141 172.69 221.96C172.872 221.779 173.101 221.688 173.378 221.688ZM176.51 225.512H178.206V226.632C178.462 226.269 178.803 225.981 179.23 225.768C179.657 225.555 180.094 225.459 180.542 225.48V227.048C180.105 227.027 179.705 227.128 179.342 227.352C178.99 227.565 178.713 227.853 178.51 228.216C178.307 228.579 178.206 228.957 178.206 229.352V233.144H176.51V225.512ZM183.316 226.968H181.876V225.496H183.316V222.824H185.012V225.496H186.82V226.968H185.012V233.144H183.316V226.968ZM193.65 228.968C193.65 228.339 193.511 227.837 193.234 227.464C192.956 227.091 192.588 226.904 192.13 226.904C191.788 226.904 191.474 227.005 191.186 227.208C190.898 227.4 190.668 227.667 190.498 228.008C190.338 228.349 190.258 228.723 190.258 229.128V233H188.562V221.704H190.258V226.408C190.492 226.109 190.78 225.875 191.122 225.704C191.463 225.523 191.799 225.432 192.13 225.432C192.748 225.432 193.303 225.576 193.794 225.864C194.284 226.152 194.668 226.552 194.946 227.064C195.223 227.565 195.362 228.136 195.362 228.776V233H193.65V228.968Z" fill="white"/>
<path fill-rule="evenodd" clip-rule="evenodd" d="M161.386 120.046C160.084 120.238 159.195 121.462 159.414 122.759L169.711 183.723C169.924 184.982 171.105 185.841 172.369 185.654L214.609 179.425C215.873 179.238 216.756 178.076 216.596 176.809L215.051 164.562L225.772 163.675C228.961 163.412 231.351 160.641 231.144 157.447L229.388 130.378C229.286 128.802 228.553 127.334 227.355 126.305C226.157 125.277 224.595 124.774 223.022 124.911L210.189 126.031L208.856 115.467C208.691 114.162 207.486 113.247 206.185 113.439L161.386 120.046ZM211.659 137.684L213.58 152.907L219.059 152.454L218.064 137.125L211.659 137.684Z" fill="url(#paint0_linear_46_1641)"/>
<path fill-rule="evenodd" clip-rule="evenodd" d="M199.503 133.279C201.359 133.706 203.325 133.801 205.323 133.506C213.918 132.238 219.859 124.243 218.591 115.647C218.095 112.285 216.57 109.33 214.382 107.052C214.551 105.681 214.54 104.264 214.329 102.83C213.061 94.2347 205.065 88.2943 196.47 89.562C195.005 89.778 193.617 90.1895 192.329 90.766C188.943 87.5348 184.155 85.8418 179.166 86.5776C173.576 87.402 169.109 91.0719 167.017 95.9017C165.839 95.8044 164.632 95.8391 163.412 96.019C154.817 97.2866 148.876 105.282 150.144 113.878C150.513 116.382 151.454 118.662 152.814 120.603C152.073 122.854 151.83 125.307 152.2 127.811C153.467 136.407 161.463 142.347 170.058 141.079C173.091 140.632 175.793 139.348 177.964 137.495C181.07 139.526 184.903 140.472 188.864 139.888C193.349 139.226 197.111 136.733 199.503 133.279Z" fill="white"/>
<path d="M180.383 147.299L184.378 174.392" stroke="white" stroke-width="2.34737" stroke-linecap="round" stroke-linejoin="round"/>
<path d="M195.09 145.13L199.086 172.223" stroke="white" stroke-width="2.34737" stroke-linecap="round" stroke-linejoin="round"/>
<path fill-rule="evenodd" clip-rule="evenodd" d="M116.868 105.664C115.522 105.303 114.142 106.119 113.81 107.472L111.465 117.015L97.7557 114.202C96.1174 113.866 94.4128 114.204 93.027 115.14C91.6412 116.076 90.6911 117.531 90.3914 119.177L85.2429 147.442C84.6354 150.777 86.8122 153.984 90.1358 154.65L101.653 156.959L98.1874 171.065C97.8647 172.379 98.6516 173.71 99.9584 174.06L143.64 185.764C144.947 186.115 146.294 185.356 146.671 184.057L164.939 121.172C165.327 119.834 164.541 118.438 163.195 118.077L116.868 105.664ZM104.621 144.876L108.498 129.096L101.482 127.656L98.5669 143.662L104.621 144.876Z" fill="url(#paint1_linear_46_1641)"/>
<ellipse cx="170.891" cy="115.631" rx="20" ry="28" transform="rotate(8.43378 170.891 115.631)" fill="url(#paint2_radial_46_1641)"/>
<path d="M123.875 140.144L116.368 168.162" stroke="white" stroke-width="2.4862" stroke-linecap="round" stroke-linejoin="round"/>
<path d="M139.084 144.219L131.577 172.237" stroke="white" stroke-width="2.4862" stroke-linecap="round" stroke-linejoin="round"/>
<path fill-rule="evenodd" clip-rule="evenodd" d="M146.408 134.032C148.194 135.271 150.24 136.236 152.49 136.839C162.168 139.432 171.944 134.328 174.326 125.44C175.258 121.963 174.92 118.421 173.584 115.243C174.357 113.99 174.96 112.613 175.357 111.131C177.739 102.242 171.824 92.9342 162.146 90.341C160.496 89.8991 158.844 89.6807 157.226 89.6664C155.031 85.0312 150.681 81.2633 145.063 79.7579C138.769 78.0715 132.434 79.6401 128.118 83.388C126.91 82.7705 125.613 82.2676 124.24 81.8998C114.562 79.3066 104.786 84.4101 102.404 93.2987C101.71 95.8885 101.72 98.5138 102.323 100.998C100.558 102.849 99.2365 105.118 98.5425 107.708C96.1608 116.596 102.076 125.904 111.754 128.498C115.168 129.412 118.595 129.369 121.705 128.54C124.123 131.888 127.784 134.508 132.243 135.703C137.293 137.056 142.37 136.314 146.408 134.032Z" fill="white"/>
<path d="M194.93 45.2227C194.734 45.2227 194.5 45.1523 194.227 45.0117C193.953 44.8711 193.684 44.7109 193.418 44.5312C191.27 43.125 189.395 41.6445 187.793 40.0898C186.191 38.5273 184.949 36.9219 184.066 35.2734C183.184 33.6172 182.742 31.9531 182.742 30.2812C182.742 29.125 182.926 28.0781 183.293 27.1406C183.66 26.1953 184.168 25.3828 184.816 24.7031C185.473 24.0234 186.223 23.5 187.066 23.1328C187.91 22.7656 188.812 22.582 189.773 22.582C190.977 22.582 192.008 22.8828 192.867 23.4844C193.734 24.0781 194.422 24.8516 194.93 25.8047C195.445 24.8516 196.133 24.0781 196.992 23.4844C197.859 22.8828 198.891 22.582 200.086 22.582C201.047 22.582 201.949 22.7656 202.793 23.1328C203.645 23.5 204.395 24.0234 205.043 24.7031C205.691 25.3828 206.199 26.1953 206.566 27.1406C206.941 28.0781 207.129 29.125 207.129 30.2812C207.129 31.9531 206.684 33.6172 205.793 35.2734C204.91 36.9219 203.668 38.5273 202.066 40.0898C200.473 41.6445 198.602 43.125 196.453 44.5312C196.18 44.7109 195.906 44.8711 195.633 45.0117C195.367 45.1523 195.133 45.2227 194.93 45.2227Z" fill="white"/>
<path d="M188.536 58.364C188.752 58.148 189.108 57.808 189.604 57.344C190.316 56.672 190.892 56.108 191.332 55.652C191.772 55.196 192.148 54.728 192.46 54.248C192.772 53.76 192.928 53.308 192.928 52.892C192.928 52.3 192.76 51.816 192.424 51.44C192.096 51.064 191.664 50.876 191.128 50.876C190.752 50.876 190.384 51.008 190.024 51.272C189.672 51.528 189.408 51.864 189.232 52.28L188.572 52.004C188.796 51.484 189.144 51.06 189.616 50.732C190.096 50.404 190.6 50.24 191.128 50.24C191.616 50.24 192.052 50.352 192.436 50.576C192.82 50.8 193.116 51.116 193.324 51.524C193.54 51.924 193.648 52.38 193.648 52.892C193.648 53.396 193.484 53.92 193.156 54.464C192.828 55 192.432 55.508 191.968 55.988C191.512 56.468 190.916 57.052 190.18 57.74L189.508 58.364H193.78V59.012H188.644L188.536 58.364ZM197.774 54.188L201.326 59H200.414L197.282 54.74L196.214 55.916V59H195.494V50.348H196.214V54.836L200.258 50.336H201.23L197.774 54.188Z" fill="white"/>
</g>
<defs>
<linearGradient id="paint0_linear_46_1641" x1="197.993" y1="139.559" x2="196.59" y2="184.003" gradientUnits="userSpaceOnUse">
<stop stop-color="#FFE589"/>
<stop offset="1" stop-color="#FFC700"/>
</linearGradient>
<linearGradient id="paint1_linear_46_1641" x1="125.5" y1="135" x2="122.5" y2="181.5" gradientUnits="userSpaceOnUse">
<stop stop-color="#FFE589"/>
<stop offset="1" stop-color="#FFC700"/>
</linearGradient>
<radialGradient id="paint2_radial_46_1641" cx="0" cy="0" r="1" gradientUnits="userSpaceOnUse" gradientTransform="translate(170.891 115.631) rotate(90) scale(28 20)">
<stop stop-color="#737373" stop-opacity="0.7"/>
<stop offset="1" stop-color="#D9D9D9" stop-opacity="0"/>
</radialGradient>
<clipPath id="clip0_46_1641">
<rect width="223" height="254" rx="10" fill="white"/>
</clipPath>
</defs>
</svg>
