<svg width="13" height="13" viewBox="0 0 13 13" fill="none" xmlns="http://www.w3.org/2000/svg">
<path d="M6.49414 12.8223C5.6582 12.8223 4.875 12.6641 4.14453 12.3477C3.41406 12.0352 2.77148 11.6016 2.2168 11.0469C1.66211 10.4922 1.22656 9.84961 0.910156 9.11914C0.597656 8.38867 0.441406 7.60547 0.441406 6.76953C0.441406 5.93359 0.597656 5.15039 0.910156 4.41992C1.22656 3.68555 1.66211 3.04297 2.2168 2.49219C2.77148 1.9375 3.41406 1.50391 4.14453 1.19141C4.875 0.875 5.6582 0.716797 6.49414 0.716797C7.33008 0.716797 8.11328 0.875 8.84375 1.19141C9.57812 1.50391 10.2227 1.9375 10.7773 2.49219C11.332 3.04297 11.7656 3.68555 12.0781 4.41992C12.3945 5.15039 12.5527 5.93359 12.5527 6.76953C12.5527 7.60547 12.3945 8.38867 12.0781 9.11914C11.7656 9.84961 11.332 10.4922 10.7773 11.0469C10.2227 11.6016 9.57812 12.0352 8.84375 12.3477C8.11328 12.6641 7.33008 12.8223 6.49414 12.8223ZM4.19141 7.35547H8.80273C8.98633 7.35547 9.13672 7.30469 9.25391 7.20312C9.37109 7.09766 9.42969 6.95703 9.42969 6.78125C9.42969 6.60156 9.37305 6.46094 9.25977 6.35938C9.14648 6.25391 8.99414 6.20117 8.80273 6.20117H4.19141C4.00391 6.20117 3.85156 6.25391 3.73438 6.35938C3.62109 6.46094 3.56445 6.60156 3.56445 6.78125C3.56445 6.95703 3.62305 7.09766 3.74023 7.20312C3.85742 7.30469 4.00781 7.35547 4.19141 7.35547Z" fill="#FF5A5A"/>
</svg>
