<svg width="351" height="372" viewBox="0 0 351 372" fill="none" xmlns="http://www.w3.org/2000/svg">
<g clip-path="url(#clip0_46_1753)">
<rect width="351" height="372" rx="10" fill="white"/>
<circle cx="148.949" cy="166.949" r="6" fill="url(#paint0_linear_46_1753)"/>
<path fill-rule="evenodd" clip-rule="evenodd" d="M152.24 133.329C154.726 124.053 151.036 114.577 143.692 109.266C145.625 97.9433 138.646 86.8043 127.33 83.7723C117.144 81.0428 106.716 85.7599 101.828 94.5867C101.021 94.2668 100.188 93.9901 99.329 93.76C87.326 90.5438 74.9885 97.667 71.7723 109.67C70.4672 114.541 70.8646 119.466 72.5997 123.815C68.9038 126.716 66.0818 130.794 64.7723 135.682C61.5561 147.685 68.6792 160.022 80.6822 163.239C82.4949 163.724 84.3154 163.974 86.1109 164.007C88.8249 169.825 93.997 174.447 100.683 176.239C112.001 179.271 123.616 173.112 127.602 162.336C128.65 162.764 129.798 163 131 163C135.971 163 140 158.97 140 154C140 151.992 139.342 150.137 138.231 148.64C144.875 146.206 150.27 140.683 152.24 133.329Z" fill="url(#paint1_linear_46_1753)"/>
<circle cx="175.5" cy="387.5" r="141.5" fill="url(#paint2_linear_46_1753)" fill-opacity="0.5"/>
<g filter="url(#filter0_d_46_1753)">
<rect x="103.65" y="113.909" width="21.1274" height="31.2999" rx="5.47748" transform="rotate(30 103.65 113.909)" fill="white"/>
<path fill-rule="evenodd" clip-rule="evenodd" d="M121.746 104.478C120.249 103.613 118.334 104.126 117.47 105.623L116.296 107.656C116.296 107.657 116.295 107.657 116.295 107.657L115.617 107.265C114.119 106.401 112.205 106.914 111.341 108.411L110.167 110.444C109.303 111.941 109.816 113.855 111.313 114.72L118.089 118.632C119.586 119.496 121.501 118.983 122.365 117.486L123.539 115.453C124.403 113.956 123.89 112.042 122.393 111.178L121.718 110.788C121.718 110.788 121.717 110.787 121.718 110.786L122.891 108.753C123.756 107.256 123.243 105.342 121.746 104.478Z" fill="url(#paint3_radial_46_1753)"/>
<rect x="107.846" y="108.201" width="19.931" height="8.47068" rx="3.48793" transform="rotate(30 107.846 108.201)" fill="url(#paint4_linear_46_1753)"/>
</g>
<path fill-rule="evenodd" clip-rule="evenodd" d="M219.227 221.017C246.79 225.808 273.018 207.348 277.81 179.785C282.601 152.222 264.141 125.994 236.578 121.203C211.695 116.878 187.899 131.503 179.982 154.668C176.551 154.788 173.59 155.835 171.371 157.903C163.076 165.637 168.308 184.731 183.058 200.551C189.713 207.689 197.169 212.941 204.11 215.845C208.724 218.298 213.799 220.073 219.227 221.017Z" fill="#FFE3DA"/>
<ellipse cx="187.812" cy="164.873" rx="2.15486" ry="5.92586" transform="rotate(-30.4335 187.812 164.873)" fill="#1D1D1D"/>
<ellipse cx="205.644" cy="192.867" rx="2.15486" ry="5.92586" transform="rotate(-30.4335 205.644 192.867)" fill="#1D1D1D"/>
<ellipse cx="216.116" cy="208.066" rx="5.93498" ry="10.229" transform="rotate(-52.8578 216.116 208.066)" fill="#FFC0C0"/>
<ellipse cx="170.729" cy="160.165" rx="5.93498" ry="10.229" transform="rotate(-52.8578 170.729 160.165)" fill="#FFC0C0"/>
<path d="M229.454 135.145C212.877 144.949 224.733 164.398 232.733 172.897C233.914 166.103 245.609 163.835 251.309 163.55C262.385 160.226 262.938 146.98 261.83 140.773C257.638 132.171 262.421 123.743 265.336 120.604C250.363 113.627 244.329 127.159 243.184 134.798C238.033 131.715 231.884 133.745 229.454 135.145Z" fill="url(#paint5_linear_46_1753)"/>
<path d="M220.03 221.157C222.729 245.625 211.533 298.908 168.776 286.495C163.557 285.302 152.366 279.916 148.479 267.026C145.599 272.596 137.25 280.991 126.884 270.01C125.624 268.617 124.185 264.877 128.504 261.058C120.406 237.784 115.115 194.815 158.736 209.138C155.677 202.971 152.906 189.325 166.294 184.073C170.253 182.88 178.819 181.567 181.411 185.864C181.748 187.539 182.211 190.993 181.56 192.211C184.181 188.517 190.596 185.33 196.527 200.783C198.326 205.358 202.792 214.535 206.679 216.922C210.353 218.142 215.171 220.56 220.03 221.157Z" fill="url(#paint6_linear_46_1753)"/>
<g filter="url(#filter1_d_46_1753)">
<mask id="mask0_46_1753" style="mask-type:alpha" maskUnits="userSpaceOnUse" x="123" y="182" width="98" height="107">
<path d="M220.03 221.157C222.751 245.625 212.467 299.133 169.365 286.72C164.104 285.526 152.35 280.606 148.431 267.715C145.529 273.285 139.773 283.487 129.324 272.506C128.054 271.114 124.194 264.877 128.548 261.058C120.385 237.784 115.051 194.815 159.024 209.138C155.941 202.971 153.147 189.325 166.644 184.073C170.634 182.88 179.269 181.567 181.882 185.864C182.221 187.539 182.688 190.993 182.032 192.211C184.675 188.517 191.142 185.33 197.12 200.783C198.934 205.358 203.436 214.535 207.354 216.922C211.058 218.142 215.335 219.983 220.03 221.157Z" fill="#FFD9D9"/>
</mask>
<g mask="url(#mask0_46_1753)">
<path d="M208.192 212.641L227.124 223.204L236.196 260.373L213.715 297.933L159.681 293.238C152.45 291.021 140.963 280.972 131.608 276.023C125.691 272.893 131.678 265.85 137.989 262.329C135.78 235.724 157.577 235.333 165.202 240.811C166.78 229.543 179.05 223.596 182.862 223.204C178.76 210.371 173.863 196.9 188.339 184.862L208.192 212.641Z" fill="#FECCCC"/>
</g>
</g>
<path d="M26.1914 40V25.8594H35.6836V28.2812H29.1211V31.7188H35.1953V34.1406H29.1211V37.5781H35.7031V40H26.1914ZM40.3125 29.3945L42.2852 33.125L44.2969 29.3945H47.2852L44.1797 34.6875L47.3633 40H44.3945L42.2852 36.3086L40.2148 40H37.207L40.3711 34.6875L37.3242 29.3945H40.3125ZM48.9258 43.9844V29.3945H51.7773V31.1719H51.8945C52.2852 30.3125 53.1445 29.2578 54.9219 29.2578C57.2656 29.2578 59.2188 31.0742 59.2188 34.707C59.2188 38.2422 57.3438 40.1758 54.9219 40.1758C53.1836 40.1758 52.3047 39.1797 51.8945 38.3008H51.8164V43.9844H48.9258ZM51.7578 34.6875C51.7578 36.6016 52.5781 37.8711 54.0039 37.8711C55.4883 37.8711 56.2695 36.5625 56.2695 34.6875C56.2695 32.832 55.4883 31.5625 54.0039 31.5625C52.5586 31.5625 51.7578 32.7734 51.7578 34.6875ZM65.8984 40.2148C62.6562 40.2148 60.6641 38.1055 60.6641 34.7461C60.6641 31.4648 62.6758 29.2578 65.7812 29.2578C68.5742 29.2578 70.7617 31.0156 70.7617 34.6289V35.4492H63.5156C63.5156 37.0508 64.4727 38.0469 65.957 38.0469C66.9336 38.0469 67.6367 37.6172 67.9297 36.9727H70.6836C70.2734 38.9258 68.5156 40.2148 65.8984 40.2148ZM63.5156 33.6328H68.0273C68.0273 32.3438 67.1289 31.4258 65.8398 31.4258C64.5117 31.4258 63.5645 32.4121 63.5156 33.6328ZM77.3438 40.2148C74.1016 40.2148 72.1484 37.9688 72.1484 34.7266C72.1484 31.4844 74.1211 29.2578 77.3438 29.2578C80.0781 29.2578 81.9336 30.8594 82.0508 33.2812H79.3359C79.1602 32.2266 78.4766 31.5039 77.3828 31.5039C75.9961 31.5039 75.0781 32.6758 75.0781 34.6875C75.0781 36.7383 75.9766 37.9102 77.3828 37.9102C78.3984 37.9102 79.1602 37.2852 79.3359 36.1523H82.0508C81.9141 38.5547 80.1562 40.2148 77.3438 40.2148ZM89.4336 29.3945V31.5625H87.4414V36.7383C87.4414 37.5781 87.8516 37.793 88.4375 37.8125C88.7305 37.8125 89.2383 37.793 89.5898 37.7539V40.0391C89.2773 40.0977 88.7695 40.1367 88.0469 40.1367C85.957 40.1367 84.5312 39.1992 84.5508 37.1484V31.5625H83.0859V29.3945H84.5508V26.8555H87.4414V29.3945H89.4336ZM95.9375 40.2148C92.6953 40.2148 90.7031 38.1055 90.7031 34.7461C90.7031 31.4648 92.7148 29.2578 95.8203 29.2578C98.6133 29.2578 100.801 31.0156 100.801 34.6289V35.4492H93.5547C93.5547 37.0508 94.5117 38.0469 95.9961 38.0469C96.9727 38.0469 97.6758 37.6172 97.9688 36.9727H100.723C100.312 38.9258 98.5547 40.2148 95.9375 40.2148ZM93.5547 33.6328H98.0664C98.0664 32.3438 97.168 31.4258 95.8789 31.4258C94.5508 31.4258 93.6035 32.4121 93.5547 33.6328ZM106.523 40.1758C104.102 40.1758 102.207 38.2422 102.207 34.707C102.207 31.0742 104.18 29.2578 106.523 29.2578C108.301 29.2578 109.141 30.3125 109.531 31.1719H109.629V25.8594H112.52V40H109.668V38.3008H109.531C109.121 39.1797 108.242 40.1758 106.523 40.1758ZM107.422 37.8711C108.867 37.8711 109.688 36.6016 109.688 34.6875C109.688 32.7734 108.867 31.5625 107.422 31.5625C105.957 31.5625 105.176 32.832 105.176 34.6875C105.176 36.5625 105.957 37.8711 107.422 37.8711ZM124.492 40H119.512V25.8594H124.551C128.809 25.8594 131.406 28.5156 131.406 32.9102C131.406 37.3438 128.809 40 124.492 40ZM122.441 37.4805H124.375C127.07 37.4805 128.477 36.0742 128.477 32.9102C128.477 29.7656 127.07 28.3789 124.395 28.3789H122.441V37.4805ZM140.273 35.4883V29.3945H143.164V40H140.391V38.0859H140.273C139.785 39.3164 138.652 40.1367 137.051 40.1367C134.922 40.1367 133.477 38.6328 133.477 36.1523V29.3945H136.367V35.6445C136.367 36.8945 137.09 37.6953 138.223 37.6953C139.277 37.6953 140.273 36.9336 140.273 35.4883ZM150.215 40.2148C146.973 40.2148 144.98 38.1055 144.98 34.7461C144.98 31.4648 146.992 29.2578 150.098 29.2578C152.891 29.2578 155.078 31.0156 155.078 34.6289V35.4492H147.832C147.832 37.0508 148.789 38.0469 150.273 38.0469C151.25 38.0469 151.953 37.6172 152.246 36.9727H155C154.59 38.9258 152.832 40.2148 150.215 40.2148ZM147.832 33.6328H152.344C152.344 32.3438 151.445 31.4258 150.156 31.4258C148.828 31.4258 147.881 32.4121 147.832 33.6328ZM166.543 40H161.562V25.8594H166.602C170.859 25.8594 173.457 28.5156 173.457 32.9102C173.457 37.3438 170.859 40 166.543 40ZM164.492 37.4805H166.426C169.121 37.4805 170.527 36.0742 170.527 32.9102C170.527 29.7656 169.121 28.3789 166.445 28.3789H164.492V37.4805ZM175.02 37.0312C175.02 34.668 176.934 33.8867 178.965 33.7695C179.727 33.7207 181.152 33.6523 181.602 33.6328V32.7734C181.582 31.8945 180.977 31.3672 179.902 31.3672C178.926 31.3672 178.301 31.8164 178.145 32.5391H175.391C175.566 30.7031 177.168 29.2578 179.98 29.2578C182.285 29.2578 184.473 30.293 184.473 32.8516V40H181.738V38.5352H181.66C181.133 39.5117 180.137 40.1953 178.555 40.1953C176.523 40.1953 175.02 39.1406 175.02 37.0312ZM177.793 36.9531C177.793 37.7734 178.457 38.2031 179.375 38.2031C180.684 38.2031 181.621 37.3242 181.602 36.2109V35.4297C181.162 35.4492 179.932 35.5176 179.434 35.5664C178.438 35.6641 177.793 36.1328 177.793 36.9531ZM192.266 29.3945V31.5625H190.273V36.7383C190.273 37.5781 190.684 37.793 191.27 37.8125C191.562 37.8125 192.07 37.793 192.422 37.7539V40.0391C192.109 40.0977 191.602 40.1367 190.879 40.1367C188.789 40.1367 187.363 39.1992 187.383 37.1484V31.5625H185.918V29.3945H187.383V26.8555H190.273V29.3945H192.266ZM198.77 40.2148C195.527 40.2148 193.535 38.1055 193.535 34.7461C193.535 31.4648 195.547 29.2578 198.652 29.2578C201.445 29.2578 203.633 31.0156 203.633 34.6289V35.4492H196.387C196.387 37.0508 197.344 38.0469 198.828 38.0469C199.805 38.0469 200.508 37.6172 200.801 36.9727H203.555C203.145 38.9258 201.387 40.2148 198.77 40.2148ZM196.387 33.6328H200.898C200.898 32.3438 200 31.4258 198.711 31.4258C197.383 31.4258 196.436 32.4121 196.387 33.6328Z" fill="#161616"/>
<path d="M31.3164 51.5156H32.6055V57.0938C32.6055 58.875 31.2695 60.1406 29.2422 60.1406C27.1914 60.1406 25.8672 58.875 25.8672 57.0938V51.5156H27.1562V56.9883C27.1562 58.1367 27.9531 58.9688 29.2422 58.9688C30.5195 58.9688 31.3164 58.1367 31.3164 56.9883V51.5156ZM35.4883 56.2266V60H34.2344V53.6367H35.4414V54.6797H35.5117C35.8164 54 36.4375 53.5547 37.3867 53.5547C38.6992 53.5547 39.5547 54.375 39.5547 55.957V60H38.3125V56.1094C38.3125 55.1836 37.8086 54.6328 36.9648 54.6328C36.1094 54.6328 35.4883 55.207 35.4883 56.2266ZM44.0547 53.6367V54.6328H42.7539V58.125C42.7539 58.8398 43.1172 58.9688 43.5156 58.9805C43.6914 58.9805 43.9727 58.957 44.1484 58.9453V60.0352C43.9727 60.0586 43.7031 60.082 43.3633 60.082C42.3789 60.082 41.5 59.543 41.5117 58.3828V54.6328H40.5742V53.6367H41.5117V52.1133H42.7539V53.6367H44.0547ZM45.2734 60V53.6367H46.5273V60H45.2734ZM45.9062 52.6523C45.4727 52.6523 45.1094 52.3242 45.1094 51.9141C45.1094 51.5039 45.4727 51.1758 45.9062 51.1758C46.3281 51.1758 46.6914 51.5039 46.6914 51.9141C46.6914 52.3242 46.3281 52.6523 45.9062 52.6523ZM49.3047 51.5156V60H48.0508V51.5156H49.3047ZM55.1523 51.5156V60H53.8633V51.5156H55.1523ZM59.6992 60V53.6367H60.9062V54.6797H60.9766C61.2461 53.9648 61.8672 53.5547 62.7109 53.5547C63.5547 53.5547 64.1523 53.9766 64.4219 54.6797H64.4922C64.7969 53.9883 65.4766 53.5547 66.4023 53.5547C67.5508 53.5547 68.3711 54.2812 68.3711 55.7344V60H67.1172V55.8516C67.1172 54.9961 66.5781 54.6328 65.9219 54.6328C65.1133 54.6328 64.6562 55.1836 64.6562 55.9453V60H63.4141V55.7812C63.4141 55.0898 62.9336 54.6328 62.2539 54.6328C61.5508 54.6328 60.9531 55.2188 60.9531 56.0742V60H59.6992ZM72.625 60.1289C70.75 60.1289 69.6016 58.8398 69.6016 56.8594C69.6016 54.9023 70.7734 53.5547 72.543 53.5547C73.9961 53.5547 75.3672 54.457 75.3672 56.7539V57.1992H70.8438C70.8789 58.4062 71.5879 59.0977 72.6367 59.0977C73.3516 59.0977 73.8086 58.793 74.0195 58.4062H75.2852C75.0039 59.4375 74.0195 60.1289 72.625 60.1289ZM70.8555 56.2617H74.1367C74.1367 55.2891 73.5156 54.5859 72.5547 54.5859C71.5527 54.5859 70.9023 55.3594 70.8555 56.2617ZM79.3516 60.1289C77.4766 60.1289 76.3281 58.8398 76.3281 56.8594C76.3281 54.9023 77.5 53.5547 79.2695 53.5547C80.7227 53.5547 82.0938 54.457 82.0938 56.7539V57.1992H77.5703C77.6055 58.4062 78.3145 59.0977 79.3633 59.0977C80.0781 59.0977 80.5352 58.793 80.7461 58.4062H82.0117C81.7305 59.4375 80.7461 60.1289 79.3516 60.1289ZM77.582 56.2617H80.8633C80.8633 55.2891 80.2422 54.5859 79.2812 54.5859C78.2793 54.5859 77.6289 55.3594 77.582 56.2617ZM86.3125 53.6367V54.6328H85.0117V58.125C85.0117 58.8398 85.375 58.9688 85.7734 58.9805C85.9492 58.9805 86.2305 58.957 86.4062 58.9453V60.0352C86.2305 60.0586 85.9609 60.082 85.6211 60.082C84.6367 60.082 83.7578 59.543 83.7695 58.3828V54.6328H82.832V53.6367H83.7695V52.1133H85.0117V53.6367H86.3125ZM90.4609 60V53.6367H91.668V54.6797H91.7383C92.0078 53.9648 92.6289 53.5547 93.4727 53.5547C94.3164 53.5547 94.9141 53.9766 95.1836 54.6797H95.2539C95.5586 53.9883 96.2383 53.5547 97.1641 53.5547C98.3125 53.5547 99.1328 54.2812 99.1328 55.7344V60H97.8789V55.8516C97.8789 54.9961 97.3398 54.6328 96.6836 54.6328C95.875 54.6328 95.418 55.1836 95.418 55.9453V60H94.1758V55.7812C94.1758 55.0898 93.6953 54.6328 93.0156 54.6328C92.3125 54.6328 91.7148 55.2188 91.7148 56.0742V60H90.4609ZM101.184 62.3906C100.926 62.3906 100.68 62.3789 100.516 62.3555V61.3125C100.656 61.3242 100.902 61.3359 101.078 61.3359C101.465 61.3359 101.793 61.3008 102.086 60.5039L102.238 60.082L99.9062 53.6367H101.242L102.848 58.5703H102.918L104.523 53.6367H105.871L103.246 60.8438C102.883 61.8516 102.227 62.3906 101.184 62.3906ZM109.82 62.3906V53.6367H111.039V54.668H111.145C111.367 54.2695 111.801 53.5547 112.973 53.5547C114.508 53.5547 115.645 54.7617 115.645 56.8359C115.645 58.8867 114.531 60.1289 112.984 60.1289C111.824 60.1289 111.367 59.4258 111.145 59.0039H111.074V62.3906H109.82ZM111.051 56.8125C111.051 58.1484 111.637 59.0625 112.703 59.0625C113.805 59.0625 114.379 58.0898 114.379 56.8125C114.379 55.5586 113.816 54.6211 112.703 54.6211C111.625 54.6211 111.051 55.4883 111.051 56.8125ZM116.887 60V53.6367H118.094V54.6445H118.164C118.398 53.9648 119.031 53.543 119.781 53.543C119.934 53.543 120.18 53.5547 120.309 53.5664V54.7617C120.203 54.7383 119.91 54.6914 119.652 54.6914C118.785 54.6914 118.141 55.2891 118.141 56.1211V60H116.887ZM123.777 60.1289C121.902 60.1289 120.754 58.8398 120.754 56.8594C120.754 54.9023 121.926 53.5547 123.695 53.5547C125.148 53.5547 126.52 54.457 126.52 56.7539V57.1992H121.996C122.031 58.4062 122.74 59.0977 123.789 59.0977C124.504 59.0977 124.961 58.793 125.172 58.4062H126.438C126.156 59.4375 125.172 60.1289 123.777 60.1289ZM122.008 56.2617H125.289C125.289 55.2891 124.668 54.5859 123.707 54.5859C122.705 54.5859 122.055 55.3594 122.008 56.2617ZM130.457 60.1289C128.605 60.1289 127.48 58.7578 127.48 56.8477C127.48 54.9023 128.641 53.5547 130.434 53.5547C131.887 53.5547 132.941 54.4102 133.07 55.6992H131.852C131.723 55.1016 131.242 54.5977 130.457 54.5977C129.426 54.5977 128.734 55.4531 128.734 56.8125C128.734 58.207 129.414 59.0625 130.457 59.0625C131.16 59.0625 131.699 58.6758 131.852 57.9844H133.07C132.93 59.2148 131.957 60.1289 130.457 60.1289ZM134.254 60V53.6367H135.508V60H134.254ZM134.887 52.6523C134.453 52.6523 134.09 52.3242 134.09 51.9141C134.09 51.5039 134.453 51.1758 134.887 51.1758C135.309 51.1758 135.672 51.5039 135.672 51.9141C135.672 52.3242 135.309 52.6523 134.887 52.6523ZM139.727 60.1289C137.922 60.1289 136.75 58.8164 136.75 56.8477C136.75 54.8672 137.922 53.5547 139.727 53.5547C141.52 53.5547 142.691 54.8672 142.691 56.8477C142.691 58.8164 141.52 60.1289 139.727 60.1289ZM139.727 59.0859C140.875 59.0859 141.426 58.0664 141.426 56.8477C141.426 55.6289 140.875 54.5859 139.727 54.5859C138.555 54.5859 138.004 55.6289 138.004 56.8477C138.004 58.0664 138.555 59.0859 139.727 59.0859ZM147.965 57.3516V53.6367H149.207V60H147.988V58.8984H147.918C147.625 59.5781 146.969 60.082 146.02 60.082C144.789 60.082 143.922 59.2617 143.922 57.6797V53.6367H145.176V57.5273C145.176 58.3945 145.703 58.9453 146.465 58.9453C147.156 58.9453 147.965 58.4414 147.965 57.3516ZM154.305 55.3711C154.188 54.8672 153.789 54.5391 153.098 54.5391C152.383 54.5391 151.867 54.9141 151.879 55.3945C151.867 55.7695 152.172 56.0391 152.875 56.2031L153.883 56.4375C155.055 56.6953 155.617 57.2578 155.629 58.1602C155.617 59.3086 154.656 60.1289 153.027 60.1289C151.504 60.1289 150.59 59.4492 150.438 58.2656H151.715C151.82 58.8398 152.266 59.1211 153.016 59.1211C153.824 59.1211 154.34 58.793 154.352 58.2539C154.34 57.8438 154.035 57.5742 153.367 57.4219L152.371 57.2109C151.223 56.9531 150.625 56.3438 150.625 55.4648C150.625 54.3281 151.609 53.5547 153.086 53.5547C154.504 53.5547 155.383 54.2812 155.512 55.3711H154.305ZM159.883 51.5156H161.453L164.137 58.0898H164.242L166.926 51.5156H168.496V60H167.266V53.8711H167.184L164.699 59.9883H163.68L161.184 53.8594H161.113V60H159.883V51.5156ZM172.82 60.1289C171.016 60.1289 169.844 58.8164 169.844 56.8477C169.844 54.8672 171.016 53.5547 172.82 53.5547C174.613 53.5547 175.785 54.8672 175.785 56.8477C175.785 58.8164 174.613 60.1289 172.82 60.1289ZM172.82 59.0859C173.969 59.0859 174.52 58.0664 174.52 56.8477C174.52 55.6289 173.969 54.5859 172.82 54.5859C171.648 54.5859 171.098 55.6289 171.098 56.8477C171.098 58.0664 171.648 59.0859 172.82 59.0859ZM177.016 60V53.6367H178.223V54.6797H178.293C178.562 53.9648 179.184 53.5547 180.027 53.5547C180.871 53.5547 181.469 53.9766 181.738 54.6797H181.809C182.113 53.9883 182.793 53.5547 183.719 53.5547C184.867 53.5547 185.688 54.2812 185.688 55.7344V60H184.434V55.8516C184.434 54.9961 183.895 54.6328 183.238 54.6328C182.43 54.6328 181.973 55.1836 181.973 55.9453V60H180.73V55.7812C180.73 55.0898 180.25 54.6328 179.57 54.6328C178.867 54.6328 178.27 55.2188 178.27 56.0742V60H177.016ZM187.199 60V53.6367H188.406V54.6797H188.477C188.746 53.9648 189.367 53.5547 190.211 53.5547C191.055 53.5547 191.652 53.9766 191.922 54.6797H191.992C192.297 53.9883 192.977 53.5547 193.902 53.5547C195.051 53.5547 195.871 54.2812 195.871 55.7344V60H194.617V55.8516C194.617 54.9961 194.078 54.6328 193.422 54.6328C192.613 54.6328 192.156 55.1836 192.156 55.9453V60H190.914V55.7812C190.914 55.0898 190.434 54.6328 189.754 54.6328C189.051 54.6328 188.453 55.2188 188.453 56.0742V60H187.199ZM197.09 58.207C197.09 56.7539 198.32 56.3789 199.469 56.2969C199.891 56.2676 200.846 56.2148 201.145 56.2031L201.133 55.6992C201.133 54.9844 200.699 54.5625 199.844 54.5625C199.105 54.5625 198.66 54.9023 198.531 55.3711H197.289C197.406 54.3164 198.391 53.5547 199.891 53.5547C200.898 53.5547 202.387 53.9297 202.387 55.7695V60H201.168V59.1328H201.121C200.875 59.6133 200.289 60.1406 199.234 60.1406C198.027 60.1406 197.09 59.4492 197.09 58.207ZM198.309 58.2188C198.309 58.8281 198.812 59.1445 199.516 59.1445C200.535 59.1445 201.145 58.4648 201.145 57.7031V57.1172L199.645 57.2227C198.824 57.2812 198.309 57.5859 198.309 58.2188ZM204.719 60.082C204.262 60.082 203.875 59.707 203.887 59.25C203.875 58.793 204.262 58.418 204.719 58.418C205.164 58.418 205.551 58.793 205.551 59.25C205.551 59.707 205.164 60.082 204.719 60.082ZM207.883 60.082C207.426 60.082 207.039 59.707 207.051 59.25C207.039 58.793 207.426 58.418 207.883 58.418C208.328 58.418 208.715 58.793 208.715 59.25C208.715 59.707 208.328 60.082 207.883 60.082Z" fill="#454545"/>
</g>
<defs>
<filter id="filter0_d_46_1753" x="86.0042" y="101.058" width="41.9546" height="53.5173" filterUnits="userSpaceOnUse" color-interpolation-filters="sRGB">
<feFlood flood-opacity="0" result="BackgroundImageFix"/>
<feColorMatrix in="SourceAlpha" type="matrix" values="0 0 0 0 0 0 0 0 0 0 0 0 0 0 0 0 0 0 127 0" result="hardAlpha"/>
<feOffset dy="1"/>
<feGaussianBlur stdDeviation="2"/>
<feComposite in2="hardAlpha" operator="out"/>
<feColorMatrix type="matrix" values="0 0 0 0 0 0 0 0 0 0 0 0 0 0 0 0 0 0 0.15 0"/>
<feBlend mode="normal" in2="BackgroundImageFix" result="effect1_dropShadow_46_1753"/>
<feBlend mode="normal" in="SourceGraphic" in2="effect1_dropShadow_46_1753" result="shape"/>
</filter>
<filter id="filter1_d_46_1753" x="110.401" y="169.212" width="128.815" height="141.259" filterUnits="userSpaceOnUse" color-interpolation-filters="sRGB">
<feFlood flood-opacity="0" result="BackgroundImageFix"/>
<feColorMatrix in="SourceAlpha" type="matrix" values="0 0 0 0 0 0 0 0 0 0 0 0 0 0 0 0 0 0 127 0" result="hardAlpha"/>
<feOffset dy="3.12999"/>
<feGaussianBlur stdDeviation="9.38996"/>
<feComposite in2="hardAlpha" operator="out"/>
<feColorMatrix type="matrix" values="0 0 0 0 0 0 0 0 0 0 0 0 0 0 0 0 0 0 0.15 0"/>
<feBlend mode="normal" in2="BackgroundImageFix" result="effect1_dropShadow_46_1753"/>
<feBlend mode="normal" in="SourceGraphic" in2="effect1_dropShadow_46_1753" result="shape"/>
</filter>
<linearGradient id="paint0_linear_46_1753" x1="146.578" y1="159.098" x2="155.568" y2="179.491" gradientUnits="userSpaceOnUse">
<stop stop-color="#DFE2E9"/>
<stop offset="1" stop-color="white"/>
</linearGradient>
<linearGradient id="paint1_linear_46_1753" x1="90.9143" y1="68.5" x2="163.929" y2="225.314" gradientUnits="userSpaceOnUse">
<stop stop-color="#DFE2E9"/>
<stop offset="1" stop-color="white"/>
</linearGradient>
<linearGradient id="paint2_linear_46_1753" x1="175.5" y1="246" x2="175.5" y2="529" gradientUnits="userSpaceOnUse">
<stop stop-color="#FFF9C8"/>
<stop offset="1" stop-color="#FFD771"/>
</linearGradient>
<radialGradient id="paint3_radial_46_1753" cx="0" cy="0" r="1" gradientUnits="userSpaceOnUse" gradientTransform="translate(118.223 110.576) rotate(120) scale(7.04312 7.04247)">
<stop stop-color="#FFDD28"/>
<stop offset="1" stop-color="#E28100"/>
</radialGradient>
<linearGradient id="paint4_linear_46_1753" x1="114.822" y1="107.454" x2="117.812" y2="116.672" gradientUnits="userSpaceOnUse">
<stop stop-color="#8CE0FF"/>
<stop offset="1" stop-color="#219DCA"/>
</linearGradient>
<linearGradient id="paint5_linear_46_1753" x1="247.067" y1="116.627" x2="237.152" y2="173.665" gradientUnits="userSpaceOnUse">
<stop stop-color="#AC9681"/>
<stop offset="1" stop-color="#663D1D"/>
</linearGradient>
<linearGradient id="paint6_linear_46_1753" x1="145.164" y1="251.702" x2="114.039" y2="150.596" gradientUnits="userSpaceOnUse">
<stop stop-color="#FFA7A7"/>
<stop offset="1" stop-color="#FFC3C3"/>
</linearGradient>
<clipPath id="clip0_46_1753">
<rect width="351" height="372" rx="10" fill="white"/>
</clipPath>
</defs>
</svg>
