<svg width="223" height="254" viewBox="0 0 223 254" fill="none" xmlns="http://www.w3.org/2000/svg">
<g clip-path="url(#clip0_46_1677)">
<rect width="223" height="254" rx="10" fill="#467AFF"/>
<path d="M37.48 42.432H34.336L30.16 30.288L26.464 42.432H23.32L17.416 24.24H21.256L24.904 35.856L28.144 24.264H32.128L35.56 35.856L38.392 24.24H42.232L37.48 42.432ZM47.8656 42.504C46.7776 42.504 45.8256 42.256 45.0096 41.76C44.1936 41.248 43.5616 40.544 43.1136 39.648C42.6656 38.736 42.4416 37.696 42.4416 36.528C42.4416 35.36 42.6656 34.328 43.1136 33.432C43.5616 32.52 44.1936 31.816 45.0096 31.32C45.8256 30.808 46.7776 30.552 47.8656 30.552C48.4256 30.552 48.9936 30.672 49.5696 30.912C50.1456 31.136 50.6176 31.504 50.9856 32.016V30.528H54.6336V42.48H50.9856V41.064C50.6016 41.56 50.1216 41.92 49.5456 42.144C48.9856 42.384 48.4256 42.504 47.8656 42.504ZM48.4416 39.552C49.1456 39.552 49.7376 39.264 50.2176 38.688C50.7136 38.112 50.9696 37.392 50.9856 36.528C50.9696 35.664 50.7136 34.944 50.2176 34.368C49.7376 33.792 49.1456 33.504 48.4416 33.504C47.6896 33.504 47.1056 33.768 46.6896 34.296C46.2896 34.824 46.0896 35.568 46.0896 36.528C46.0896 37.488 46.2896 38.232 46.6896 38.76C47.1056 39.288 47.6896 39.552 48.4416 39.552ZM59.2707 33.6H56.8947V30.48H59.2707V26.232H62.9187V30.48H65.7267V33.6H62.9187V42.48H59.2707V33.6ZM73.0934 42.48C71.9734 42.48 70.9734 42.232 70.0934 41.736C69.2134 41.224 68.5254 40.52 68.0294 39.624C67.5334 38.712 67.2854 37.68 67.2854 36.528C67.2854 35.36 67.5334 34.328 68.0294 33.432C68.5254 32.52 69.2134 31.808 70.0934 31.296C70.9734 30.784 71.9734 30.528 73.0934 30.528C75.3974 30.528 77.0854 31.6 78.1574 33.744C78.5254 34.448 78.7094 35.456 78.7094 36.768L78.6854 37.752H70.6934C70.8374 38.28 71.1414 38.704 71.6054 39.024C72.0854 39.328 72.5894 39.48 73.1174 39.48C73.6934 39.48 74.1574 39.384 74.5094 39.192C74.8774 38.984 75.1334 38.744 75.2774 38.472L78.2774 39.6C77.9574 40.384 77.3494 41.064 76.4534 41.64C75.5734 42.2 74.4534 42.48 73.0934 42.48ZM75.3494 35.616C75.2054 34.944 74.9414 34.424 74.5574 34.056C74.1734 33.688 73.6854 33.504 73.0934 33.504C72.4854 33.504 71.9734 33.688 71.5574 34.056C71.1414 34.424 70.8614 34.944 70.7174 35.616H75.3494ZM81.1683 30.552H84.7683V32.232C85.1523 31.672 85.6403 31.248 86.2323 30.96C86.8243 30.672 87.3603 30.544 87.8403 30.576V33.792C87.2003 33.744 86.6483 33.88 86.1843 34.2C85.7203 34.504 85.3683 34.896 85.1283 35.376C84.8883 35.856 84.7683 36.328 84.7683 36.792V42.48H81.1683V30.552ZM105.335 36.36C105.335 35.544 105.159 34.888 104.807 34.392C104.471 33.896 104.023 33.648 103.463 33.648C102.919 33.648 102.463 33.92 102.095 34.464C101.743 34.992 101.567 35.624 101.567 36.36V42.48H97.9191V36.36C97.9191 35.544 97.7511 34.888 97.4151 34.392C97.0791 33.896 96.6391 33.648 96.0951 33.648C95.5191 33.648 95.0471 33.896 94.6791 34.392C94.3271 34.888 94.1511 35.544 94.1511 36.36V42.48H90.5031V30.552H94.1511V32.28C94.4871 31.736 94.8951 31.328 95.3751 31.056C95.8711 30.768 96.3911 30.624 96.9351 30.624C97.5591 30.624 98.1751 30.848 98.7831 31.296C99.3911 31.744 99.8871 32.288 100.271 32.928C100.735 32.304 101.327 31.768 102.047 31.32C102.783 30.856 103.471 30.624 104.111 30.624C105.631 30.624 106.823 31.152 107.687 32.208C108.551 33.264 108.983 34.648 108.983 36.36V42.48H105.335V36.36ZM117.367 42.48C116.247 42.48 115.247 42.232 114.367 41.736C113.487 41.224 112.799 40.52 112.303 39.624C111.807 38.712 111.559 37.68 111.559 36.528C111.559 35.36 111.807 34.328 112.303 33.432C112.799 32.52 113.487 31.808 114.367 31.296C115.247 30.784 116.247 30.528 117.367 30.528C119.671 30.528 121.359 31.6 122.431 33.744C122.799 34.448 122.983 35.456 122.983 36.768L122.959 37.752H114.967C115.111 38.28 115.415 38.704 115.879 39.024C116.359 39.328 116.863 39.48 117.391 39.48C117.967 39.48 118.431 39.384 118.783 39.192C119.151 38.984 119.407 38.744 119.551 38.472L122.551 39.6C122.231 40.384 121.623 41.064 120.727 41.64C119.847 42.2 118.727 42.48 117.367 42.48ZM119.623 35.616C119.479 34.944 119.215 34.424 118.831 34.056C118.447 33.688 117.959 33.504 117.367 33.504C116.759 33.504 116.247 33.688 115.831 34.056C115.415 34.424 115.135 34.944 114.991 35.616H119.623ZM128.994 24.912V42.432H125.346V24.912H128.994ZM136.962 39.48C137.666 39.48 138.21 39.224 138.594 38.712C138.978 38.184 139.17 37.448 139.17 36.504C139.17 35.56 138.978 34.824 138.594 34.296C138.21 33.768 137.666 33.504 136.962 33.504C136.274 33.504 135.73 33.768 135.33 34.296C134.946 34.824 134.754 35.56 134.754 36.504C134.754 37.448 134.946 38.184 135.33 38.712C135.714 39.224 136.258 39.48 136.962 39.48ZM136.962 30.504C138.098 30.504 139.106 30.76 139.986 31.272C140.882 31.784 141.578 32.496 142.074 33.408C142.57 34.304 142.818 35.336 142.818 36.504C142.818 37.656 142.57 38.688 142.074 39.6C141.578 40.496 140.882 41.2 139.986 41.712C139.106 42.224 138.098 42.48 136.962 42.48C135.826 42.48 134.81 42.224 133.914 41.712C133.034 41.2 132.346 40.496 131.85 39.6C131.354 38.688 131.106 37.656 131.106 36.504C131.106 35.336 131.354 34.304 131.85 33.408C132.346 32.496 133.034 31.784 133.914 31.272C134.81 30.76 135.826 30.504 136.962 30.504ZM153.219 36.432C153.219 35.488 153.035 34.784 152.667 34.32C152.299 33.856 151.715 33.624 150.915 33.624C150.307 33.64 149.795 33.896 149.379 34.392C148.963 34.872 148.771 35.552 148.803 36.432V42.48H145.155V30.552H148.803V32.256C149.155 31.744 149.619 31.344 150.195 31.056C150.771 30.768 151.347 30.624 151.923 30.624C152.611 30.624 153.323 30.784 154.059 31.104C154.811 31.424 155.467 32.016 156.027 32.88C156.587 33.744 156.867 34.928 156.867 36.432V42.48H153.219V36.432Z" fill="white"/>
<path d="M25.975 213.12H24.25L18.76 204.78V213.12H17.17V202.05H18.895L24.37 210.375V202.05H25.975V213.12ZM29.8328 210.06C29.8328 210.6 29.9778 211.03 30.2678 211.35C30.5578 211.67 30.9428 211.83 31.4228 211.83C31.9328 211.83 32.3428 211.675 32.6528 211.365C32.9628 211.045 33.1128 210.615 33.1028 210.075V205.98H34.7078V213.135H33.1028V212.31C32.8828 212.58 32.6028 212.795 32.2628 212.955C31.9228 213.115 31.5728 213.195 31.2128 213.195C30.6428 213.195 30.1328 213.065 29.6828 212.805C29.2328 212.545 28.8778 212.185 28.6178 211.725C28.3678 211.255 28.2428 210.72 28.2428 210.12V205.98H29.8328V210.06ZM37.6532 207.345H36.3032V205.965H37.6532V203.46H39.2432V205.965H40.9382V207.345H39.2432V213.135H37.6532V207.345ZM42.3618 205.98H43.9518V207.03C44.1918 206.69 44.5118 206.42 44.9118 206.22C45.3118 206.02 45.7218 205.93 46.1418 205.95V207.42C45.7318 207.4 45.3568 207.495 45.0168 207.705C44.6868 207.905 44.4268 208.175 44.2368 208.515C44.0468 208.855 43.9518 209.21 43.9518 209.58V213.135H42.3618V205.98ZM49.5521 205.965V213.12H47.9621V205.965H49.5521ZM48.7571 202.395C49.0171 202.395 49.2321 202.48 49.4021 202.65C49.5721 202.82 49.6571 203.035 49.6571 203.295C49.6571 203.555 49.5721 203.77 49.4021 203.94C49.2321 204.11 49.0171 204.195 48.7571 204.195C48.4971 204.195 48.2821 204.11 48.1121 203.94C47.9421 203.77 47.8571 203.555 47.8571 203.295C47.8571 203.035 47.9421 202.82 48.1121 202.65C48.2821 202.48 48.4971 202.395 48.7571 202.395ZM54.9329 213.165C54.2629 213.165 53.6679 213.015 53.1479 212.715C52.6279 212.405 52.2179 211.98 51.9179 211.44C51.6279 210.89 51.4829 210.27 51.4829 209.58C51.4829 208.88 51.6279 208.26 51.9179 207.72C52.2179 207.17 52.6279 206.745 53.1479 206.445C53.6679 206.135 54.2629 205.98 54.9329 205.98C55.8629 205.98 56.5579 206.215 57.0179 206.685C57.4779 207.145 57.7729 207.555 57.9029 207.915C58.1129 208.405 58.2179 208.99 58.2179 209.67L58.2029 210.195H53.0429C53.1329 210.675 53.3579 211.065 53.7179 211.365C54.0779 211.665 54.4829 211.815 54.9329 211.815C55.4429 211.815 55.8379 211.715 56.1179 211.515C56.3979 211.315 56.5979 211.115 56.7179 210.915L57.9929 211.485C57.7929 211.945 57.4279 212.34 56.8979 212.67C56.3779 213 55.7229 213.165 54.9329 213.165ZM56.7029 208.935C56.6229 208.455 56.4379 208.07 56.1479 207.78C55.8579 207.48 55.4529 207.33 54.9329 207.33C54.4629 207.33 54.0529 207.48 53.7029 207.78C53.3529 208.08 53.1329 208.465 53.0429 208.935H56.7029ZM64.7727 209.19C64.7727 208.62 64.6327 208.175 64.3527 207.855C64.0727 207.525 63.6877 207.36 63.1977 207.36C62.7077 207.37 62.2977 207.55 61.9677 207.9C61.6377 208.24 61.4777 208.67 61.4877 209.19V213.135H59.8977V205.98H61.4877V206.955C61.7177 206.675 62.0077 206.445 62.3577 206.265C62.7077 206.085 63.0527 205.995 63.3927 205.995C63.8827 205.995 64.3527 206.105 64.8027 206.325C65.2527 206.545 65.6227 206.89 65.9127 207.36C66.2127 207.83 66.3627 208.42 66.3627 209.13V213.135H64.7727V209.19ZM68.9862 207.345H67.6362V205.965H68.9862V203.46H70.5762V205.965H72.2712V207.345H70.5762V213.135H68.9862V207.345ZM80.6586 206.685V208.275H74.1186V206.685H80.6586ZM86.8746 207.57C87.4746 207.57 87.9646 207.38 88.3446 207C88.7246 206.61 88.9146 206.11 88.9146 205.5C88.9146 204.9 88.7196 204.41 88.3296 204.03C87.9496 203.64 87.4596 203.445 86.8596 203.445H84.4296V207.57H86.8746ZM86.9196 202.05C87.6096 202.05 88.2246 202.2 88.7646 202.5C89.3046 202.79 89.7246 203.195 90.0246 203.715C90.3346 204.235 90.4896 204.83 90.4896 205.5C90.4896 206.17 90.3346 206.765 90.0246 207.285C89.7246 207.805 89.3046 208.215 88.7646 208.515C88.2246 208.805 87.6096 208.95 86.9196 208.95H84.4296V213.12H82.8396V202.05H86.9196ZM94.8924 213.195C94.2424 213.195 93.6574 213.04 93.1374 212.73C92.6274 212.42 92.2274 211.995 91.9374 211.455C91.6474 210.905 91.5024 210.285 91.5024 209.595C91.5024 208.905 91.6474 208.29 91.9374 207.75C92.2274 207.2 92.6274 206.77 93.1374 206.46C93.6574 206.15 94.2424 205.995 94.8924 205.995C95.2624 205.995 95.6274 206.08 95.9874 206.25C96.3474 206.42 96.6674 206.67 96.9474 207V205.98H98.5374V213.135H96.9474V212.175C96.6774 212.515 96.3624 212.77 96.0024 212.94C95.6424 213.11 95.2724 213.195 94.8924 213.195ZM94.9974 211.845C95.3474 211.845 95.6724 211.75 95.9724 211.56C96.2724 211.36 96.5124 211.09 96.6924 210.75C96.8724 210.4 96.9624 210.015 96.9624 209.595C96.9624 209.175 96.8724 208.795 96.6924 208.455C96.5124 208.105 96.2724 207.835 95.9724 207.645C95.6724 207.445 95.3474 207.345 94.9974 207.345C94.4274 207.345 93.9674 207.55 93.6174 207.96C93.2674 208.37 93.0924 208.915 93.0924 209.595C93.0924 210.265 93.2674 210.81 93.6174 211.23C93.9674 211.64 94.4274 211.845 94.9974 211.845ZM103.561 211.665C103.841 211.665 104.126 211.6 104.416 211.47C104.716 211.33 104.966 211.15 105.166 210.93L106.261 212.025C105.951 212.365 105.546 212.645 105.046 212.865C104.546 213.075 104.071 213.18 103.621 213.18C102.921 213.18 102.296 213.03 101.746 212.73C101.196 212.42 100.766 211.99 100.456 211.44C100.146 210.89 99.9911 210.27 99.9911 209.58C99.9911 208.88 100.146 208.26 100.456 207.72C100.766 207.17 101.196 206.74 101.746 206.43C102.296 206.12 102.921 205.965 103.621 205.965C104.091 205.965 104.566 206.075 105.046 206.295C105.526 206.505 105.931 206.785 106.261 207.135L105.166 208.215C104.966 207.995 104.716 207.82 104.416 207.69C104.126 207.55 103.841 207.48 103.561 207.48C102.971 207.48 102.491 207.67 102.121 208.05C101.761 208.43 101.581 208.94 101.581 209.58C101.581 210.21 101.761 210.715 102.121 211.095C102.491 211.475 102.971 211.665 103.561 211.665ZM109.302 208.935L111.852 205.98H113.997L111.207 209.175L113.937 213.135H112.002L110.067 210.36L109.302 211.26V213.135H107.712V202.41H109.302V208.935ZM118.214 213.165C117.544 213.165 116.949 213.015 116.429 212.715C115.909 212.405 115.499 211.98 115.199 211.44C114.909 210.89 114.764 210.27 114.764 209.58C114.764 208.88 114.909 208.26 115.199 207.72C115.499 207.17 115.909 206.745 116.429 206.445C116.949 206.135 117.544 205.98 118.214 205.98C119.144 205.98 119.839 206.215 120.299 206.685C120.759 207.145 121.054 207.555 121.184 207.915C121.394 208.405 121.499 208.99 121.499 209.67L121.484 210.195H116.324C116.414 210.675 116.639 211.065 116.999 211.365C117.359 211.665 117.764 211.815 118.214 211.815C118.724 211.815 119.119 211.715 119.399 211.515C119.679 211.315 119.879 211.115 119.999 210.915L121.274 211.485C121.074 211.945 120.709 212.34 120.179 212.67C119.659 213 119.004 213.165 118.214 213.165ZM119.984 208.935C119.904 208.455 119.719 208.07 119.429 207.78C119.139 207.48 118.734 207.33 118.214 207.33C117.744 207.33 117.334 207.48 116.984 207.78C116.634 208.08 116.414 208.465 116.324 208.935H119.984ZM126.358 213.195C125.708 213.195 125.123 213.04 124.603 212.73C124.083 212.42 123.678 211.995 123.388 211.455C123.098 210.905 122.953 210.28 122.953 209.58C122.953 208.88 123.098 208.26 123.388 207.72C123.678 207.17 124.083 206.74 124.603 206.43C125.123 206.12 125.708 205.965 126.358 205.965C126.698 205.965 127.058 206.05 127.438 206.22C127.828 206.39 128.163 206.66 128.443 207.03V202.41H130.033V213.135H128.443V212.13C128.153 212.49 127.813 212.76 127.423 212.94C127.043 213.11 126.688 213.195 126.358 213.195ZM126.463 211.86C126.823 211.86 127.153 211.76 127.453 211.56C127.753 211.36 127.993 211.09 128.173 210.75C128.353 210.4 128.443 210.015 128.443 209.595C128.443 209.185 128.353 208.805 128.173 208.455C127.993 208.105 127.748 207.83 127.438 207.63C127.138 207.43 126.813 207.33 126.463 207.33C125.883 207.33 125.418 207.54 125.068 207.96C124.718 208.37 124.543 208.915 124.543 209.595C124.543 210.275 124.718 210.825 125.068 211.245C125.418 211.655 125.883 211.86 126.463 211.86ZM134.511 210.075H132.981L132.696 201.675H134.751L134.511 210.075ZM133.761 211.485C134.031 211.485 134.251 211.57 134.421 211.74C134.591 211.91 134.676 212.135 134.676 212.415C134.676 212.695 134.591 212.92 134.421 213.09C134.251 213.27 134.031 213.36 133.761 213.36C133.481 213.36 133.251 213.27 133.071 213.09C132.901 212.92 132.816 212.695 132.816 212.415C132.816 212.135 132.901 211.91 133.071 211.74C133.251 211.57 133.481 211.485 133.761 211.485ZM25.63 231.12H24.025V226.125H18.805V231.12H17.215V220.05H18.805V224.745H24.025V220.05H25.63V231.12ZM30.952 231.195C30.302 231.195 29.717 231.04 29.197 230.73C28.687 230.42 28.287 229.995 27.997 229.455C27.707 228.905 27.562 228.285 27.562 227.595C27.562 226.905 27.707 226.29 27.997 225.75C28.287 225.2 28.687 224.77 29.197 224.46C29.717 224.15 30.302 223.995 30.952 223.995C31.322 223.995 31.687 224.08 32.047 224.25C32.407 224.42 32.727 224.67 33.007 225V223.98H34.597V231.135H33.007V230.175C32.737 230.515 32.422 230.77 32.062 230.94C31.702 231.11 31.332 231.195 30.952 231.195ZM31.057 229.845C31.407 229.845 31.732 229.75 32.032 229.56C32.332 229.36 32.572 229.09 32.752 228.75C32.932 228.4 33.022 228.015 33.022 227.595C33.022 227.175 32.932 226.795 32.752 226.455C32.572 226.105 32.332 225.835 32.032 225.645C31.732 225.445 31.407 225.345 31.057 225.345C30.487 225.345 30.027 225.55 29.677 225.96C29.327 226.37 29.152 226.915 29.152 227.595C29.152 228.265 29.327 228.81 29.677 229.23C30.027 229.64 30.487 229.845 31.057 229.845ZM40.4492 231.135H39.0692L36.0692 223.98H37.8092L39.7592 228.99L41.7242 223.98H43.4792L40.4492 231.135ZM47.5061 231.165C46.8361 231.165 46.2411 231.015 45.7211 230.715C45.2011 230.405 44.7911 229.98 44.4911 229.44C44.2011 228.89 44.0561 228.27 44.0561 227.58C44.0561 226.88 44.2011 226.26 44.4911 225.72C44.7911 225.17 45.2011 224.745 45.7211 224.445C46.2411 224.135 46.8361 223.98 47.5061 223.98C48.4361 223.98 49.1311 224.215 49.5911 224.685C50.0511 225.145 50.3461 225.555 50.4761 225.915C50.6861 226.405 50.7911 226.99 50.7911 227.67L50.7761 228.195H45.6161C45.7061 228.675 45.9311 229.065 46.2911 229.365C46.6511 229.665 47.0561 229.815 47.5061 229.815C48.0161 229.815 48.4111 229.715 48.6911 229.515C48.9711 229.315 49.1711 229.115 49.2911 228.915L50.5661 229.485C50.3661 229.945 50.0011 230.34 49.4711 230.67C48.9511 231 48.2961 231.165 47.5061 231.165ZM49.2761 226.935C49.1961 226.455 49.0111 226.07 48.7211 225.78C48.4311 225.48 48.0261 225.33 47.5061 225.33C47.0361 225.33 46.6261 225.48 46.2761 225.78C45.9261 226.08 45.7061 226.465 45.6161 226.935H49.2761ZM57.931 223.965V231.12H56.341V223.965H57.931ZM57.136 220.395C57.396 220.395 57.611 220.48 57.781 220.65C57.951 220.82 58.036 221.035 58.036 221.295C58.036 221.555 57.951 221.77 57.781 221.94C57.611 222.11 57.396 222.195 57.136 222.195C56.876 222.195 56.661 222.11 56.491 221.94C56.321 221.77 56.236 221.555 56.236 221.295C56.236 221.035 56.321 220.82 56.491 220.65C56.661 220.48 56.876 220.395 57.136 220.395ZM61.0468 225.345H59.6968V223.965H61.0468V221.46H62.6368V223.965H64.3318V225.345H62.6368V231.135H61.0468V225.345ZM81.1111 231.12H79.6261L77.0311 222.795L74.5861 231.12H73.0861L69.7111 220.05H71.3761L73.8361 228.27L76.1761 220.065H77.8711L80.2711 228.27L82.5211 220.05H84.1861L81.1111 231.12ZM90.6276 227.22C90.6276 226.63 90.4976 226.16 90.2376 225.81C89.9776 225.46 89.6326 225.285 89.2026 225.285C88.8826 225.285 88.5876 225.38 88.3176 225.57C88.0476 225.75 87.8326 226 87.6726 226.32C87.5226 226.64 87.4476 226.99 87.4476 227.37V231H85.8576V220.41H87.4476V224.82C87.6676 224.54 87.9376 224.32 88.2576 224.16C88.5776 223.99 88.8926 223.905 89.2026 223.905C89.7826 223.905 90.3026 224.04 90.7626 224.31C91.2226 224.58 91.5826 224.955 91.8426 225.435C92.1026 225.905 92.2326 226.44 92.2326 227.04V231H90.6276V227.22ZM97.428 231.165C96.758 231.165 96.163 231.015 95.643 230.715C95.123 230.405 94.713 229.98 94.413 229.44C94.123 228.89 93.978 228.27 93.978 227.58C93.978 226.88 94.123 226.26 94.413 225.72C94.713 225.17 95.123 224.745 95.643 224.445C96.163 224.135 96.758 223.98 97.428 223.98C98.358 223.98 99.053 224.215 99.513 224.685C99.973 225.145 100.268 225.555 100.398 225.915C100.608 226.405 100.713 226.99 100.713 227.67L100.698 228.195H95.538C95.628 228.675 95.853 229.065 96.213 229.365C96.573 229.665 96.978 229.815 97.428 229.815C97.938 229.815 98.333 229.715 98.613 229.515C98.893 229.315 99.093 229.115 99.213 228.915L100.488 229.485C100.288 229.945 99.923 230.34 99.393 230.67C98.873 231 98.218 231.165 97.428 231.165ZM99.198 226.935C99.118 226.455 98.933 226.07 98.643 225.78C98.353 225.48 97.948 225.33 97.428 225.33C96.958 225.33 96.548 225.48 96.198 225.78C95.848 226.08 95.628 226.465 95.538 226.935H99.198ZM107.268 227.19C107.268 226.62 107.128 226.175 106.848 225.855C106.568 225.525 106.183 225.36 105.693 225.36C105.203 225.37 104.793 225.55 104.463 225.9C104.133 226.24 103.973 226.67 103.983 227.19V231.135H102.393V223.98H103.983V224.955C104.213 224.675 104.503 224.445 104.853 224.265C105.203 224.085 105.548 223.995 105.888 223.995C106.378 223.995 106.848 224.105 107.298 224.325C107.748 224.545 108.118 224.89 108.408 225.36C108.708 225.83 108.858 226.42 108.858 227.13V231.135H107.268V227.19ZM113.922 231.165C113.252 231.165 112.657 231.015 112.137 230.715C111.617 230.405 111.207 229.98 110.907 229.44C110.617 228.89 110.472 228.27 110.472 227.58C110.472 226.88 110.617 226.26 110.907 225.72C111.207 225.17 111.617 224.745 112.137 224.445C112.657 224.135 113.252 223.98 113.922 223.98C114.852 223.98 115.547 224.215 116.007 224.685C116.467 225.145 116.762 225.555 116.892 225.915C117.102 226.405 117.207 226.99 117.207 227.67L117.192 228.195H112.032C112.122 228.675 112.347 229.065 112.707 229.365C113.067 229.665 113.472 229.815 113.922 229.815C114.432 229.815 114.827 229.715 115.107 229.515C115.387 229.315 115.587 229.115 115.707 228.915L116.982 229.485C116.782 229.945 116.417 230.34 115.887 230.67C115.367 231 114.712 231.165 113.922 231.165ZM115.692 226.935C115.612 226.455 115.427 226.07 115.137 225.78C114.847 225.48 114.442 225.33 113.922 225.33C113.452 225.33 113.042 225.48 112.692 225.78C112.342 226.08 112.122 226.465 112.032 226.935H115.692ZM122.231 231.135H120.851L117.851 223.98H119.591L121.541 228.99L123.506 223.98H125.261L122.231 231.135ZM129.288 231.165C128.618 231.165 128.023 231.015 127.503 230.715C126.983 230.405 126.573 229.98 126.273 229.44C125.983 228.89 125.838 228.27 125.838 227.58C125.838 226.88 125.983 226.26 126.273 225.72C126.573 225.17 126.983 224.745 127.503 224.445C128.023 224.135 128.618 223.98 129.288 223.98C130.218 223.98 130.913 224.215 131.373 224.685C131.833 225.145 132.128 225.555 132.258 225.915C132.468 226.405 132.573 226.99 132.573 227.67L132.558 228.195H127.398C127.488 228.675 127.713 229.065 128.073 229.365C128.433 229.665 128.838 229.815 129.288 229.815C129.798 229.815 130.193 229.715 130.473 229.515C130.753 229.315 130.953 229.115 131.073 228.915L132.348 229.485C132.148 229.945 131.783 230.34 131.253 230.67C130.733 231 130.078 231.165 129.288 231.165ZM131.058 226.935C130.978 226.455 130.793 226.07 130.503 225.78C130.213 225.48 129.808 225.33 129.288 225.33C128.818 225.33 128.408 225.48 128.058 225.78C127.708 226.08 127.488 226.465 127.398 226.935H131.058ZM134.178 223.98H135.768V225.03C136.008 224.69 136.328 224.42 136.728 224.22C137.128 224.02 137.538 223.93 137.958 223.95V225.42C137.548 225.4 137.173 225.495 136.833 225.705C136.503 225.905 136.243 226.175 136.053 226.515C135.863 226.855 135.768 227.21 135.768 227.58V231.135H134.178V223.98ZM148.411 226.8V231.12H146.821V226.8L142.966 220.05H144.811L147.616 225.045L150.421 220.05H152.266L148.411 226.8ZM154.923 229.83C155.483 229.83 155.933 229.625 156.273 229.215C156.613 228.805 156.783 228.26 156.783 227.58C156.783 226.91 156.613 226.37 156.273 225.96C155.933 225.54 155.483 225.33 154.923 225.33C154.363 225.33 153.913 225.535 153.573 225.945C153.233 226.355 153.063 226.9 153.063 227.58C153.063 228.26 153.233 228.805 153.573 229.215C153.913 229.625 154.363 229.83 154.923 229.83ZM154.923 223.965C155.593 223.965 156.188 224.12 156.708 224.43C157.228 224.74 157.633 225.17 157.923 225.72C158.223 226.26 158.373 226.88 158.373 227.58C158.373 228.27 158.223 228.89 157.923 229.44C157.633 229.99 157.228 230.42 156.708 230.73C156.188 231.04 155.593 231.195 154.923 231.195C154.253 231.195 153.658 231.04 153.138 230.73C152.618 230.42 152.208 229.99 151.908 229.44C151.618 228.89 151.473 228.27 151.473 227.58C151.473 226.88 151.618 226.26 151.908 225.72C152.208 225.17 152.618 224.74 153.138 224.43C153.658 224.12 154.253 223.965 154.923 223.965ZM161.742 228.06C161.742 228.6 161.887 229.03 162.177 229.35C162.467 229.67 162.852 229.83 163.332 229.83C163.842 229.83 164.252 229.675 164.562 229.365C164.872 229.045 165.022 228.615 165.012 228.075V223.98H166.617V231.135H165.012V230.31C164.792 230.58 164.512 230.795 164.172 230.955C163.832 231.115 163.482 231.195 163.122 231.195C162.552 231.195 162.042 231.065 161.592 230.805C161.142 230.545 160.787 230.185 160.527 229.725C160.277 229.255 160.152 228.72 160.152 228.12V223.98H161.742V228.06ZM183.474 231.12H181.989L179.394 222.795L176.949 231.12H175.449L172.074 220.05H173.739L176.199 228.27L178.539 220.065H180.234L182.634 228.27L184.884 220.05H186.549L183.474 231.12ZM190.312 231.195C189.662 231.195 189.077 231.04 188.557 230.73C188.047 230.42 187.647 229.995 187.357 229.455C187.067 228.905 186.922 228.285 186.922 227.595C186.922 226.905 187.067 226.29 187.357 225.75C187.647 225.2 188.047 224.77 188.557 224.46C189.077 224.15 189.662 223.995 190.312 223.995C190.682 223.995 191.047 224.08 191.407 224.25C191.767 224.42 192.087 224.67 192.367 225V223.98H193.957V231.135H192.367V230.175C192.097 230.515 191.782 230.77 191.422 230.94C191.062 231.11 190.692 231.195 190.312 231.195ZM190.417 229.845C190.767 229.845 191.092 229.75 191.392 229.56C191.692 229.36 191.932 229.09 192.112 228.75C192.292 228.4 192.382 228.015 192.382 227.595C192.382 227.175 192.292 226.795 192.112 226.455C191.932 226.105 191.692 225.835 191.392 225.645C191.092 225.445 190.767 225.345 190.417 225.345C189.847 225.345 189.387 225.55 189.037 225.96C188.687 226.37 188.512 226.915 188.512 227.595C188.512 228.265 188.687 228.81 189.037 229.23C189.387 229.64 189.847 229.845 190.417 229.845ZM200.783 227.19C200.783 226.62 200.643 226.175 200.363 225.855C200.083 225.525 199.698 225.36 199.208 225.36C198.718 225.37 198.308 225.55 197.978 225.9C197.648 226.24 197.488 226.67 197.498 227.19V231.135H195.908V223.98H197.498V224.955C197.728 224.675 198.018 224.445 198.368 224.265C198.718 224.085 199.063 223.995 199.403 223.995C199.893 223.995 200.363 224.105 200.813 224.325C201.263 224.545 201.633 224.89 201.923 225.36C202.223 225.83 202.373 226.42 202.373 227.13V231.135H200.783V227.19ZM204.997 225.345H203.647V223.965H204.997V221.46H206.587V223.965H208.282V225.345H206.587V231.135H204.997V225.345Z" fill="white"/>
<path d="M194.93 45.2227C194.734 45.2227 194.5 45.1523 194.227 45.0117C193.953 44.8711 193.684 44.7109 193.418 44.5312C191.27 43.125 189.395 41.6445 187.793 40.0898C186.191 38.5273 184.949 36.9219 184.066 35.2734C183.184 33.6172 182.742 31.9531 182.742 30.2812C182.742 29.125 182.926 28.0781 183.293 27.1406C183.66 26.1953 184.168 25.3828 184.816 24.7031C185.473 24.0234 186.223 23.5 187.066 23.1328C187.91 22.7656 188.812 22.582 189.773 22.582C190.977 22.582 192.008 22.8828 192.867 23.4844C193.734 24.0781 194.422 24.8516 194.93 25.8047C195.445 24.8516 196.133 24.0781 196.992 23.4844C197.859 22.8828 198.891 22.582 200.086 22.582C201.047 22.582 201.949 22.7656 202.793 23.1328C203.645 23.5 204.395 24.0234 205.043 24.7031C205.691 25.3828 206.199 26.1953 206.566 27.1406C206.941 28.0781 207.129 29.125 207.129 30.2812C207.129 31.9531 206.684 33.6172 205.793 35.2734C204.91 36.9219 203.668 38.5273 202.066 40.0898C200.473 41.6445 198.602 43.125 196.453 44.5312C196.18 44.7109 195.906 44.8711 195.633 45.0117C195.367 45.1523 195.133 45.2227 194.93 45.2227Z" fill="white"/>
<path d="M188.536 58.364C188.752 58.148 189.108 57.808 189.604 57.344C190.316 56.672 190.892 56.108 191.332 55.652C191.772 55.196 192.148 54.728 192.46 54.248C192.772 53.76 192.928 53.308 192.928 52.892C192.928 52.3 192.76 51.816 192.424 51.44C192.096 51.064 191.664 50.876 191.128 50.876C190.752 50.876 190.384 51.008 190.024 51.272C189.672 51.528 189.408 51.864 189.232 52.28L188.572 52.004C188.796 51.484 189.144 51.06 189.616 50.732C190.096 50.404 190.6 50.24 191.128 50.24C191.616 50.24 192.052 50.352 192.436 50.576C192.82 50.8 193.116 51.116 193.324 51.524C193.54 51.924 193.648 52.38 193.648 52.892C193.648 53.396 193.484 53.92 193.156 54.464C192.828 55 192.432 55.508 191.968 55.988C191.512 56.468 190.916 57.052 190.18 57.74L189.508 58.364H193.78V59.012H188.644L188.536 58.364ZM197.774 54.188L201.326 59H200.414L197.282 54.74L196.214 55.916V59H195.494V50.348H196.214V54.836L200.258 50.336H201.23L197.774 54.188Z" fill="white"/>
<path d="M200.141 179.735C182.722 185.083 159.965 182.504 149.664 179.601C207.748 138.457 196.267 152.667 236.53 131.903C232.762 162.281 214.102 174.755 200.141 179.735Z" fill="#638C37"/>
<path d="M133.707 174.183C88.9089 153.381 95.5472 107.426 105.274 84.7434C105.882 83.3273 107.496 82.6777 108.943 83.2081L234.723 129.322C236.401 129.937 237.157 131.901 236.304 133.471C209.527 182.718 162.856 187.719 133.707 174.183Z" fill="#438D29"/>
<path d="M134.637 172.278C91.2522 151.9 97.7854 105.494 106.761 85.0192C107.372 83.6271 108.965 83.0103 110.392 83.5357L233.187 128.772C234.857 129.388 235.613 131.34 234.768 132.907C208.784 181.123 162.955 185.58 134.637 172.278Z" fill="#DBDDB0"/>
<path d="M139.268 164.473C99.9355 146.541 106.727 103.758 115.17 85.3364L227.996 126.814C206.176 171.12 164.419 175.939 139.268 164.473Z" fill="url(#paint0_linear_46_1677)"/>
<path d="M131.421 111.79C130.806 111.517 130.324 111.153 129.974 110.697C129.622 110.244 129.418 109.736 129.36 109.173C129.306 108.607 129.412 108.025 129.678 107.424C129.809 107.129 129.97 106.852 130.163 106.594C130.355 106.336 130.555 106.1 130.762 105.888C130.969 105.676 131.159 105.491 131.331 105.334C131.649 105.047 132.001 104.765 132.384 104.49C132.773 104.212 133.172 103.942 133.583 103.678C133.993 103.414 134.391 103.155 134.776 102.901C134.889 102.831 134.998 102.787 135.104 102.771C135.214 102.755 135.313 102.767 135.401 102.807C135.493 102.847 135.569 102.913 135.628 103.003C135.687 103.092 135.728 103.203 135.752 103.333C135.825 103.791 135.901 104.259 135.978 104.739C136.058 105.221 136.126 105.698 136.182 106.172C136.238 106.643 136.266 107.092 136.264 107.519C136.263 107.753 136.254 108.017 136.236 108.314C136.218 108.61 136.178 108.916 136.116 109.231C136.054 109.547 135.957 109.853 135.826 110.149C135.56 110.749 135.198 111.218 134.74 111.557C134.287 111.894 133.774 112.084 133.203 112.128C132.63 112.175 132.036 112.062 131.421 111.79Z" fill="url(#paint1_linear_46_1677)"/>
<path d="M149.645 132.837C149.03 132.565 148.547 132.2 148.198 131.745C147.846 131.292 147.642 130.784 147.583 130.22C147.53 129.655 147.636 129.072 147.902 128.472C148.033 128.176 148.194 127.899 148.386 127.641C148.579 127.383 148.778 127.148 148.986 126.936C149.193 126.723 149.383 126.538 149.555 126.381C149.873 126.094 150.224 125.813 150.608 125.537C150.997 125.26 151.396 124.989 151.807 124.725C152.217 124.462 152.615 124.203 153 123.949C153.112 123.878 153.222 123.835 153.328 123.818C153.438 123.803 153.537 123.815 153.625 123.854C153.717 123.895 153.792 123.96 153.852 124.05C153.911 124.14 153.952 124.25 153.976 124.381C154.049 124.838 154.125 125.307 154.202 125.787C154.282 126.268 154.35 126.746 154.406 127.22C154.462 127.691 154.49 128.14 154.488 128.567C154.487 128.8 154.478 129.065 154.46 129.361C154.442 129.657 154.402 129.963 154.34 130.279C154.278 130.595 154.181 130.9 154.05 131.196C153.784 131.797 153.422 132.266 152.964 132.604C152.511 132.941 151.998 133.132 151.427 133.176C150.854 133.223 150.26 133.11 149.645 132.837Z" fill="url(#paint2_linear_46_1677)"/>
<path d="M124.584 141.494C123.969 141.222 123.487 140.858 123.137 140.402C122.785 139.949 122.581 139.441 122.523 138.877C122.469 138.312 122.575 137.729 122.841 137.129C122.972 136.833 123.134 136.557 123.326 136.299C123.518 136.04 123.718 135.805 123.925 135.593C124.132 135.38 124.322 135.196 124.494 135.039C124.813 134.751 125.164 134.47 125.548 134.194C125.936 133.917 126.335 133.647 126.746 133.383C127.156 133.119 127.554 132.86 127.939 132.606C128.052 132.535 128.161 132.492 128.267 132.475C128.377 132.46 128.476 132.472 128.565 132.512C128.656 132.552 128.732 132.617 128.791 132.707C128.85 132.797 128.891 132.908 128.915 133.038C128.988 133.495 129.064 133.964 129.141 134.444C129.222 134.925 129.289 135.403 129.345 135.877C129.401 136.348 129.429 136.797 129.427 137.224C129.426 137.457 129.417 137.722 129.399 138.018C129.381 138.315 129.341 138.621 129.279 138.936C129.217 139.252 129.12 139.558 128.989 139.853C128.723 140.454 128.361 140.923 127.903 141.262C127.45 141.598 126.938 141.789 126.366 141.833C125.793 141.88 125.199 141.767 124.584 141.494Z" fill="url(#paint3_linear_46_1677)"/>
<path d="M164.231 157.269C163.616 156.996 163.133 156.632 162.783 156.176C162.432 155.724 162.227 155.215 162.169 154.652C162.116 154.087 162.222 153.504 162.488 152.904C162.619 152.608 162.78 152.331 162.972 152.073C163.165 151.815 163.364 151.58 163.572 151.367C163.779 151.155 163.969 150.97 164.141 150.813C164.459 150.526 164.81 150.244 165.194 149.969C165.583 149.692 165.982 149.421 166.392 149.157C166.803 148.893 167.201 148.634 167.586 148.38C167.698 148.31 167.808 148.266 167.914 148.25C168.024 148.235 168.123 148.247 168.211 148.286C168.303 148.327 168.378 148.392 168.438 148.482C168.497 148.572 168.538 148.682 168.562 148.813C168.635 149.27 168.711 149.738 168.788 150.218C168.868 150.7 168.936 151.177 168.992 151.651C169.048 152.122 169.076 152.571 169.074 152.999C169.073 153.232 169.064 153.497 169.046 153.793C169.028 154.089 168.988 154.395 168.925 154.711C168.863 155.026 168.767 155.332 168.636 155.628C168.37 156.228 168.008 156.698 167.55 157.036C167.097 157.373 166.584 157.563 166.013 157.607C165.44 157.654 164.846 157.541 164.231 157.269Z" fill="url(#paint4_linear_46_1677)"/>
<path d="M179.394 130.677C178.779 130.404 178.296 130.04 177.947 129.584C177.595 129.131 177.391 128.623 177.332 128.06C177.279 127.495 177.385 126.912 177.651 126.312C177.782 126.016 177.943 125.739 178.136 125.481C178.328 125.223 178.527 124.988 178.735 124.775C178.942 124.563 179.132 124.378 179.304 124.221C179.622 123.934 179.973 123.652 180.357 123.377C180.746 123.099 181.145 122.829 181.556 122.565C181.966 122.301 182.364 122.042 182.749 121.788C182.861 121.718 182.971 121.674 183.077 121.658C183.187 121.643 183.286 121.655 183.374 121.694C183.466 121.735 183.542 121.8 183.601 121.89C183.66 121.98 183.701 122.09 183.725 122.221C183.798 122.678 183.874 123.146 183.951 123.626C184.031 124.108 184.099 124.585 184.155 125.059C184.211 125.53 184.239 125.979 184.237 126.407C184.236 126.64 184.227 126.904 184.209 127.201C184.191 127.497 184.151 127.803 184.089 128.119C184.027 128.434 183.93 128.74 183.799 129.036C183.533 129.636 183.171 130.106 182.713 130.444C182.26 130.781 181.747 130.971 181.176 131.015C180.603 131.062 180.009 130.949 179.394 130.677Z" fill="url(#paint5_linear_46_1677)"/>
<path d="M196.987 145.796C196.372 145.523 195.89 145.159 195.54 144.703C195.189 144.25 194.984 143.742 194.926 143.179C194.872 142.614 194.978 142.031 195.244 141.43C195.375 141.135 195.537 140.858 195.729 140.6C195.921 140.342 196.121 140.107 196.328 139.894C196.535 139.682 196.725 139.497 196.897 139.34C197.216 139.053 197.567 138.771 197.951 138.496C198.339 138.218 198.738 137.948 199.149 137.684C199.559 137.42 199.957 137.161 200.342 136.907C200.455 136.837 200.564 136.793 200.671 136.777C200.78 136.762 200.879 136.774 200.968 136.813C201.059 136.853 201.135 136.919 201.194 137.009C201.253 137.099 201.295 137.209 201.318 137.34C201.391 137.797 201.467 138.265 201.544 138.745C201.625 139.227 201.692 139.704 201.748 140.178C201.805 140.649 201.832 141.098 201.83 141.525C201.829 141.759 201.82 142.023 201.802 142.32C201.784 142.616 201.744 142.922 201.682 143.238C201.62 143.553 201.523 143.859 201.392 144.155C201.126 144.755 200.764 145.224 200.307 145.563C199.853 145.9 199.341 146.09 198.769 146.134C198.196 146.181 197.603 146.068 196.987 145.796Z" fill="url(#paint6_linear_46_1677)"/>
<path d="M69.9491 112.193L69.949 112.194C68.4837 112.805 67.3494 113.504 66.4266 114.427C65.5038 115.349 64.805 116.484 64.1935 117.949L64.1935 117.949C63.7484 119.017 62.2516 119.017 61.8065 117.949L61.8065 117.949C61.195 116.484 60.4962 115.349 59.5734 114.427C58.6506 113.504 57.5163 112.805 56.051 112.194L56.0509 112.193C54.983 111.748 54.983 110.252 56.0509 109.807L56.051 109.806C57.5163 109.195 58.6506 108.496 59.5734 107.573C60.4962 106.651 61.195 105.516 61.8065 104.051L61.8065 104.051C62.2516 102.983 63.7484 102.983 64.1935 104.051L64.1935 104.051C64.805 105.516 65.5038 106.651 66.4266 107.573C67.3494 108.496 68.4837 109.195 69.949 109.806L69.9491 109.807C71.017 110.252 71.017 111.748 69.9491 112.193Z" fill="#8FAFFF" stroke="#467AFF" stroke-width="0.5"/>
<path d="M86.7658 91.5514L86.7657 91.5514C85.0287 92.3144 83.6874 93.185 82.5978 94.332C81.5085 95.4786 80.6826 96.8889 79.9589 98.7144L79.9589 98.7145C79.4122 100.095 77.5878 100.095 77.0411 98.7145L77.0411 98.7144C76.3174 96.8889 75.4915 95.4786 74.4022 94.332C73.3126 93.185 71.9713 92.3144 70.2343 91.5514L70.2342 91.5514C68.9219 90.9757 68.9219 89.0243 70.2342 88.4486L70.2343 88.4486C71.9713 87.6856 73.3126 86.815 74.4022 85.668C75.4915 84.5214 76.3174 83.1111 77.0411 81.2856L77.0411 81.2855C77.5878 79.9048 79.4122 79.9048 79.9589 81.2855L79.9589 81.2856C80.6826 83.1111 81.5085 84.5214 82.5978 85.668C83.6874 86.815 85.0287 87.6856 86.7657 88.4486L86.7658 88.4486C88.0781 89.0243 88.0781 90.9757 86.7658 91.5514Z" fill="#8FAFFF" stroke="#467AFF" stroke-width="0.5"/>
</g>
<defs>
<linearGradient id="paint0_linear_46_1677" x1="173.413" y1="102.134" x2="148.615" y2="169.72" gradientUnits="userSpaceOnUse">
<stop stop-color="#FF888C"/>
<stop offset="1" stop-color="#FF2F34"/>
</linearGradient>
<linearGradient id="paint1_linear_46_1677" x1="135.883" y1="102.384" x2="131.832" y2="111.526" gradientUnits="userSpaceOnUse">
<stop stop-color="#A06F64"/>
<stop offset="1" stop-color="#39211E"/>
</linearGradient>
<linearGradient id="paint2_linear_46_1677" x1="154.107" y1="123.431" x2="150.056" y2="132.574" gradientUnits="userSpaceOnUse">
<stop stop-color="#A06F64"/>
<stop offset="1" stop-color="#39211E"/>
</linearGradient>
<linearGradient id="paint3_linear_46_1677" x1="129.046" y1="132.089" x2="124.995" y2="141.231" gradientUnits="userSpaceOnUse">
<stop stop-color="#A06F64"/>
<stop offset="1" stop-color="#39211E"/>
</linearGradient>
<linearGradient id="paint4_linear_46_1677" x1="168.693" y1="147.863" x2="164.642" y2="157.006" gradientUnits="userSpaceOnUse">
<stop stop-color="#A06F64"/>
<stop offset="1" stop-color="#39211E"/>
</linearGradient>
<linearGradient id="paint5_linear_46_1677" x1="183.856" y1="121.271" x2="179.805" y2="130.414" gradientUnits="userSpaceOnUse">
<stop stop-color="#A06F64"/>
<stop offset="1" stop-color="#39211E"/>
</linearGradient>
<linearGradient id="paint6_linear_46_1677" x1="201.449" y1="136.39" x2="197.398" y2="145.533" gradientUnits="userSpaceOnUse">
<stop stop-color="#A06F64"/>
<stop offset="1" stop-color="#39211E"/>
</linearGradient>
<clipPath id="clip0_46_1677">
<rect width="223" height="254" rx="10" fill="white"/>
</clipPath>
</defs>
</svg>
