<svg width="223" height="254" viewBox="0 0 223 254" fill="none" xmlns="http://www.w3.org/2000/svg">
<g clip-path="url(#clip0_46_1696)">
<rect width="223" height="254" rx="10" fill="#FFA53A"/>
<path d="M34.936 42.432H31.048L29.416 37.872H22.816L21.136 42.432H17.248L23.968 24.24H28.384L34.936 42.432ZM28.288 34.752L26.176 28.776L23.968 34.752H28.288ZM52.3429 36.36C52.3429 35.544 52.1669 34.888 51.8149 34.392C51.4789 33.896 51.0309 33.648 50.4709 33.648C49.9269 33.648 49.4709 33.92 49.1029 34.464C48.7509 34.992 48.5749 35.624 48.5749 36.36V42.48H44.9269V36.36C44.9269 35.544 44.7589 34.888 44.4229 34.392C44.0869 33.896 43.6469 33.648 43.1029 33.648C42.5269 33.648 42.0549 33.896 41.6869 34.392C41.3349 34.888 41.1589 35.544 41.1589 36.36V42.48H37.5109V30.552H41.1589V32.28C41.4949 31.736 41.9029 31.328 42.3829 31.056C42.8789 30.768 43.3989 30.624 43.9429 30.624C44.5669 30.624 45.1829 30.848 45.7909 31.296C46.3989 31.744 46.8949 32.288 47.2789 32.928C47.7429 32.304 48.3349 31.768 49.0549 31.32C49.7909 30.856 50.4789 30.624 51.1189 30.624C52.6389 30.624 53.8309 31.152 54.6949 32.208C55.5589 33.264 55.9909 34.648 55.9909 36.36V42.48H52.3429V36.36ZM64.3746 42.48C63.2546 42.48 62.2546 42.232 61.3746 41.736C60.4946 41.224 59.8066 40.52 59.3106 39.624C58.8146 38.712 58.5666 37.68 58.5666 36.528C58.5666 35.36 58.8146 34.328 59.3106 33.432C59.8066 32.52 60.4946 31.808 61.3746 31.296C62.2546 30.784 63.2546 30.528 64.3746 30.528C66.6786 30.528 68.3666 31.6 69.4386 33.744C69.8066 34.448 69.9906 35.456 69.9906 36.768L69.9666 37.752H61.9746C62.1186 38.28 62.4226 38.704 62.8866 39.024C63.3666 39.328 63.8706 39.48 64.3986 39.48C64.9746 39.48 65.4386 39.384 65.7906 39.192C66.1586 38.984 66.4146 38.744 66.5586 38.472L69.5586 39.6C69.2386 40.384 68.6306 41.064 67.7346 41.64C66.8546 42.2 65.7346 42.48 64.3746 42.48ZM66.6306 35.616C66.4866 34.944 66.2226 34.424 65.8386 34.056C65.4546 33.688 64.9666 33.504 64.3746 33.504C63.7666 33.504 63.2546 33.688 62.8386 34.056C62.4226 34.424 62.1426 34.944 61.9986 35.616H66.6306ZM72.4495 30.552H76.0495V32.232C76.4335 31.672 76.9215 31.248 77.5135 30.96C78.1055 30.672 78.6415 30.544 79.1215 30.576V33.792C78.4815 33.744 77.9295 33.88 77.4655 34.2C77.0015 34.504 76.6495 34.896 76.4095 35.376C76.1695 35.856 76.0495 36.328 76.0495 36.792V42.48H72.4495V30.552ZM85.5764 30.504V42.432H81.9284V30.504H85.5764ZM83.7524 24.456C84.3124 24.456 84.7684 24.632 85.1204 24.984C85.4724 25.336 85.6484 25.792 85.6484 26.352C85.6484 26.896 85.4724 27.352 85.1204 27.72C84.7684 28.072 84.3124 28.248 83.7524 28.248C83.2084 28.248 82.7524 28.072 82.3844 27.72C82.0324 27.352 81.8564 26.896 81.8564 26.352C81.8564 25.792 82.0324 25.336 82.3844 24.984C82.7524 24.632 83.2084 24.456 83.7524 24.456ZM93.5459 39.048C93.8819 39.048 94.2339 38.952 94.6019 38.76C94.9859 38.552 95.3379 38.28 95.6579 37.944L98.0099 40.512C97.5139 41.088 96.8499 41.56 96.0179 41.928C95.1859 42.296 94.3859 42.48 93.6179 42.48C92.4499 42.48 91.4099 42.224 90.4979 41.712C89.5859 41.2 88.8739 40.496 88.3619 39.6C87.8499 38.688 87.5939 37.656 87.5939 36.504C87.5939 35.336 87.8499 34.304 88.3619 33.408C88.8739 32.496 89.5859 31.784 90.4979 31.272C91.4099 30.76 92.4499 30.504 93.6179 30.504C94.4659 30.504 95.2739 30.68 96.0419 31.032C96.8099 31.384 97.4659 31.864 98.0099 32.472L95.6579 35.016C95.3379 34.68 94.9859 34.416 94.6019 34.224C94.2339 34.032 93.8819 33.936 93.5459 33.936C92.8099 33.936 92.2419 34.16 91.8419 34.608C91.4419 35.056 91.2419 35.688 91.2419 36.504C91.2419 37.304 91.4419 37.928 91.8419 38.376C92.2419 38.824 92.8099 39.048 93.5459 39.048ZM104.936 42.504C103.848 42.504 102.896 42.256 102.08 41.76C101.264 41.248 100.632 40.544 100.184 39.648C99.7359 38.736 99.5119 37.696 99.5119 36.528C99.5119 35.36 99.7359 34.328 100.184 33.432C100.632 32.52 101.264 31.816 102.08 31.32C102.896 30.808 103.848 30.552 104.936 30.552C105.496 30.552 106.064 30.672 106.64 30.912C107.216 31.136 107.688 31.504 108.056 32.016V30.528H111.704V42.48H108.056V41.064C107.672 41.56 107.192 41.92 106.616 42.144C106.056 42.384 105.496 42.504 104.936 42.504ZM105.512 39.552C106.216 39.552 106.808 39.264 107.288 38.688C107.784 38.112 108.04 37.392 108.056 36.528C108.04 35.664 107.784 34.944 107.288 34.368C106.808 33.792 106.216 33.504 105.512 33.504C104.76 33.504 104.176 33.768 103.76 34.296C103.36 34.824 103.16 35.568 103.16 36.528C103.16 37.488 103.36 38.232 103.76 38.76C104.176 39.288 104.76 39.552 105.512 39.552ZM123.055 36.432C123.055 35.488 122.871 34.784 122.503 34.32C122.135 33.856 121.551 33.624 120.751 33.624C120.143 33.64 119.631 33.896 119.215 34.392C118.799 34.872 118.607 35.552 118.639 36.432V42.48H114.991V30.552H118.639V32.256C118.991 31.744 119.455 31.344 120.031 31.056C120.607 30.768 121.183 30.624 121.759 30.624C122.447 30.624 123.159 30.784 123.895 31.104C124.647 31.424 125.303 32.016 125.863 32.88C126.423 33.744 126.703 34.928 126.703 36.432V42.48H123.055V36.432ZM134.899 39.48C135.603 39.48 136.147 39.224 136.531 38.712C136.915 38.184 137.107 37.448 137.107 36.504C137.107 35.56 136.915 34.824 136.531 34.296C136.147 33.768 135.603 33.504 134.899 33.504C134.211 33.504 133.667 33.768 133.267 34.296C132.883 34.824 132.691 35.56 132.691 36.504C132.691 37.448 132.883 38.184 133.267 38.712C133.651 39.224 134.195 39.48 134.899 39.48ZM134.899 30.504C136.035 30.504 137.043 30.76 137.923 31.272C138.819 31.784 139.515 32.496 140.011 33.408C140.507 34.304 140.755 35.336 140.755 36.504C140.755 37.656 140.507 38.688 140.011 39.6C139.515 40.496 138.819 41.2 137.923 41.712C137.043 42.224 136.035 42.48 134.899 42.48C133.763 42.48 132.747 42.224 131.851 41.712C130.971 41.2 130.283 40.496 129.787 39.6C129.291 38.688 129.043 37.656 129.043 36.504C129.043 35.336 129.291 34.304 129.787 33.408C130.283 32.496 130.971 31.784 131.851 31.272C132.747 30.76 133.763 30.504 134.899 30.504Z" fill="white"/>
<path d="M29.28 213.128H27.696L24.928 204.248L22.32 213.128H20.72L17.12 201.32H18.896L21.52 210.088L24.016 201.336H25.824L28.384 210.088L30.784 201.32H32.56L29.28 213.128ZM39.4309 208.968C39.4309 208.339 39.2922 207.837 39.0149 207.464C38.7375 207.091 38.3695 206.904 37.9109 206.904C37.5695 206.904 37.2549 207.005 36.9669 207.208C36.6789 207.4 36.4495 207.667 36.2789 208.008C36.1189 208.349 36.0389 208.723 36.0389 209.128V213H34.3429V201.704H36.0389V206.408C36.2735 206.109 36.5615 205.875 36.9029 205.704C37.2442 205.523 37.5802 205.432 37.9109 205.432C38.5295 205.432 39.0842 205.576 39.5749 205.864C40.0655 206.152 40.4495 206.552 40.7269 207.064C41.0042 207.565 41.1429 208.136 41.1429 208.776V213H39.4309V208.968ZM46.6846 213.176C45.97 213.176 45.3353 213.016 44.7806 212.696C44.226 212.365 43.7886 211.912 43.4686 211.336C43.1593 210.749 43.0046 210.088 43.0046 209.352C43.0046 208.605 43.1593 207.944 43.4686 207.368C43.7886 206.781 44.226 206.328 44.7806 206.008C45.3353 205.677 45.97 205.512 46.6846 205.512C47.6766 205.512 48.418 205.763 48.9086 206.264C49.3993 206.755 49.714 207.192 49.8526 207.576C50.0766 208.099 50.1886 208.723 50.1886 209.448L50.1726 210.008H44.6686C44.7646 210.52 45.0046 210.936 45.3886 211.256C45.7726 211.576 46.2046 211.736 46.6846 211.736C47.2286 211.736 47.65 211.629 47.9486 211.416C48.2473 211.203 48.4606 210.989 48.5886 210.776L49.9486 211.384C49.7353 211.875 49.346 212.296 48.7806 212.648C48.226 213 47.5273 213.176 46.6846 213.176ZM48.5726 208.664C48.4873 208.152 48.29 207.741 47.9806 207.432C47.6713 207.112 47.2393 206.952 46.6846 206.952C46.1833 206.952 45.746 207.112 45.3726 207.432C44.9993 207.752 44.7646 208.163 44.6686 208.664H48.5726ZM57.1805 208.936C57.1805 208.328 57.0312 207.853 56.7325 207.512C56.4338 207.16 56.0232 206.984 55.5005 206.984C54.9778 206.995 54.5405 207.187 54.1885 207.56C53.8365 207.923 53.6658 208.381 53.6765 208.936V213.144H51.9805V205.512H53.6765V206.552C53.9218 206.253 54.2312 206.008 54.6045 205.816C54.9778 205.624 55.3458 205.528 55.7085 205.528C56.2312 205.528 56.7325 205.645 57.2125 205.88C57.6925 206.115 58.0872 206.483 58.3965 206.984C58.7165 207.485 58.8765 208.115 58.8765 208.872V213.144H57.1805V208.936ZM65.7541 216.456L67.4181 212.504L64.3461 205.512H66.2181L68.3141 210.568L70.3301 205.512H72.1701L69.3221 212.376L67.6101 216.456H65.7541ZM76.6065 211.752C77.2038 211.752 77.6838 211.533 78.0465 211.096C78.4092 210.659 78.5905 210.077 78.5905 209.352C78.5905 208.637 78.4092 208.061 78.0465 207.624C77.6838 207.176 77.2038 206.952 76.6065 206.952C76.0092 206.952 75.5292 207.171 75.1665 207.608C74.8038 208.045 74.6225 208.627 74.6225 209.352C74.6225 210.077 74.8038 210.659 75.1665 211.096C75.5292 211.533 76.0092 211.752 76.6065 211.752ZM76.6065 205.496C77.3212 205.496 77.9558 205.661 78.5105 205.992C79.0652 206.323 79.4972 206.781 79.8065 207.368C80.1265 207.944 80.2865 208.605 80.2865 209.352C80.2865 210.088 80.1265 210.749 79.8065 211.336C79.4972 211.923 79.0652 212.381 78.5105 212.712C77.9558 213.043 77.3212 213.208 76.6065 213.208C75.8918 213.208 75.2572 213.043 74.7025 212.712C74.1478 212.381 73.7105 211.923 73.3905 211.336C73.0812 210.749 72.9265 210.088 72.9265 209.352C72.9265 208.605 73.0812 207.944 73.3905 207.368C73.7105 206.781 74.1478 206.323 74.7025 205.992C75.2572 205.661 75.8918 205.496 76.6065 205.496ZM83.88 209.864C83.88 210.44 84.0347 210.899 84.344 211.24C84.6533 211.581 85.064 211.752 85.576 211.752C86.12 211.752 86.5573 211.587 86.888 211.256C87.2187 210.915 87.3787 210.456 87.368 209.88V205.512H89.08V213.144H87.368V212.264C87.1333 212.552 86.8347 212.781 86.472 212.952C86.1093 213.123 85.736 213.208 85.352 213.208C84.744 213.208 84.2 213.069 83.72 212.792C83.24 212.515 82.8613 212.131 82.584 211.64C82.3173 211.139 82.184 210.568 82.184 209.928V205.512H83.88V209.864ZM92.1619 204.184H90.9299L91.5219 200.376H93.2819L92.1619 204.184ZM95.6818 205.512H97.3778V206.632C97.6338 206.269 97.9751 205.981 98.4018 205.768C98.8284 205.555 99.2658 205.459 99.7138 205.48V207.048C99.2764 207.027 98.8764 207.128 98.5138 207.352C98.1618 207.565 97.8844 207.853 97.6818 208.216C97.4791 208.579 97.3778 208.957 97.3778 209.352V213.144H95.6818V205.512ZM104.263 213.176C103.548 213.176 102.913 213.016 102.359 212.696C101.804 212.365 101.367 211.912 101.047 211.336C100.737 210.749 100.583 210.088 100.583 209.352C100.583 208.605 100.737 207.944 101.047 207.368C101.367 206.781 101.804 206.328 102.359 206.008C102.913 205.677 103.548 205.512 104.263 205.512C105.255 205.512 105.996 205.763 106.487 206.264C106.977 206.755 107.292 207.192 107.431 207.576C107.655 208.099 107.767 208.723 107.767 209.448L107.751 210.008H102.247C102.343 210.52 102.583 210.936 102.967 211.256C103.351 211.576 103.783 211.736 104.263 211.736C104.807 211.736 105.228 211.629 105.527 211.416C105.825 211.203 106.039 210.989 106.167 210.776L107.527 211.384C107.313 211.875 106.924 212.296 106.359 212.648C105.804 213 105.105 213.176 104.263 213.176ZM106.151 208.664C106.065 208.152 105.868 207.741 105.559 207.432C105.249 207.112 104.817 206.952 104.263 206.952C103.761 206.952 103.324 207.112 102.951 207.432C102.577 207.752 102.343 208.163 102.247 208.664H106.151ZM114.615 210.52C114.775 210.904 115.02 211.203 115.351 211.416C115.681 211.629 115.996 211.736 116.295 211.736C116.7 211.736 117.02 211.667 117.255 211.528C117.489 211.379 117.607 211.171 117.607 210.904C117.607 210.691 117.489 210.52 117.255 210.392C117.02 210.264 116.641 210.109 116.119 209.928C115.607 209.747 115.185 209.576 114.855 209.416C114.524 209.256 114.231 209.027 113.975 208.728C113.729 208.419 113.607 208.04 113.607 207.592C113.607 206.931 113.873 206.408 114.407 206.024C114.94 205.629 115.607 205.432 116.407 205.432C116.748 205.432 117.105 205.501 117.479 205.64C117.863 205.779 118.204 205.992 118.503 206.28C118.812 206.568 119.025 206.925 119.143 207.352L117.719 207.864C117.601 207.491 117.415 207.235 117.159 207.096C116.913 206.957 116.663 206.888 116.407 206.888C116.065 206.888 115.793 206.952 115.591 207.08C115.399 207.208 115.303 207.379 115.303 207.592C115.303 207.805 115.409 207.971 115.623 208.088C115.836 208.205 116.22 208.36 116.775 208.552C117.287 208.733 117.708 208.909 118.039 209.08C118.38 209.24 118.673 209.469 118.919 209.768C119.175 210.067 119.303 210.44 119.303 210.888C119.303 211.581 119.025 212.141 118.471 212.568C117.916 212.984 117.191 213.192 116.295 213.192C115.697 213.192 115.116 213.021 114.551 212.68C113.985 212.328 113.564 211.864 113.287 211.288L114.615 210.52ZM121.956 206.968H120.516V205.496H121.956V202.824H123.652V205.496H125.46V206.968H123.652V213.144H121.956V206.968ZM126.979 205.512H128.675V206.632C128.931 206.269 129.272 205.981 129.699 205.768C130.125 205.555 130.563 205.459 131.011 205.48V207.048C130.573 207.027 130.173 207.128 129.811 207.352C129.459 207.565 129.181 207.853 128.979 208.216C128.776 208.579 128.675 208.957 128.675 209.352V213.144H126.979V205.512ZM135.56 213.176C134.845 213.176 134.21 213.016 133.656 212.696C133.101 212.365 132.664 211.912 132.344 211.336C132.034 210.749 131.88 210.088 131.88 209.352C131.88 208.605 132.034 207.944 132.344 207.368C132.664 206.781 133.101 206.328 133.656 206.008C134.21 205.677 134.845 205.512 135.56 205.512C136.552 205.512 137.293 205.763 137.784 206.264C138.274 206.755 138.589 207.192 138.728 207.576C138.952 208.099 139.064 208.723 139.064 209.448L139.048 210.008H133.544C133.64 210.52 133.88 210.936 134.264 211.256C134.648 211.576 135.08 211.736 135.56 211.736C136.104 211.736 136.525 211.629 136.824 211.416C137.122 211.203 137.336 210.989 137.464 210.776L138.824 211.384C138.61 211.875 138.221 212.296 137.656 212.648C137.101 213 136.402 213.176 135.56 213.176ZM137.448 208.664C137.362 208.152 137.165 207.741 136.856 207.432C136.546 207.112 136.114 206.952 135.56 206.952C135.058 206.952 134.621 207.112 134.248 207.432C133.874 207.752 133.64 208.163 133.544 208.664H137.448ZM141.912 210.52C142.072 210.904 142.317 211.203 142.648 211.416C142.978 211.629 143.293 211.736 143.592 211.736C143.997 211.736 144.317 211.667 144.552 211.528C144.786 211.379 144.904 211.171 144.904 210.904C144.904 210.691 144.786 210.52 144.552 210.392C144.317 210.264 143.938 210.109 143.416 209.928C142.904 209.747 142.482 209.576 142.152 209.416C141.821 209.256 141.528 209.027 141.272 208.728C141.026 208.419 140.904 208.04 140.904 207.592C140.904 206.931 141.17 206.408 141.704 206.024C142.237 205.629 142.904 205.432 143.704 205.432C144.045 205.432 144.402 205.501 144.776 205.64C145.16 205.779 145.501 205.992 145.8 206.28C146.109 206.568 146.322 206.925 146.44 207.352L145.016 207.864C144.898 207.491 144.712 207.235 144.456 207.096C144.21 206.957 143.96 206.888 143.704 206.888C143.362 206.888 143.09 206.952 142.888 207.08C142.696 207.208 142.6 207.379 142.6 207.592C142.6 207.805 142.706 207.971 142.92 208.088C143.133 208.205 143.517 208.36 144.072 208.552C144.584 208.733 145.005 208.909 145.336 209.08C145.677 209.24 145.97 209.469 146.216 209.768C146.472 210.067 146.6 210.44 146.6 210.888C146.6 211.581 146.322 212.141 145.768 212.568C145.213 212.984 144.488 213.192 143.592 213.192C142.994 213.192 142.413 213.021 141.848 212.68C141.282 212.328 140.861 211.864 140.584 211.288L141.912 210.52ZM149.255 210.52C149.415 210.904 149.661 211.203 149.991 211.416C150.322 211.629 150.637 211.736 150.935 211.736C151.341 211.736 151.661 211.667 151.895 211.528C152.13 211.379 152.247 211.171 152.247 210.904C152.247 210.691 152.13 210.52 151.895 210.392C151.661 210.264 151.282 210.109 150.759 209.928C150.247 209.747 149.826 209.576 149.495 209.416C149.165 209.256 148.871 209.027 148.615 208.728C148.37 208.419 148.247 208.04 148.247 207.592C148.247 206.931 148.514 206.408 149.047 206.024C149.581 205.629 150.247 205.432 151.047 205.432C151.389 205.432 151.746 205.501 152.119 205.64C152.503 205.779 152.845 205.992 153.143 206.28C153.453 206.568 153.666 206.925 153.783 207.352L152.359 207.864C152.242 207.491 152.055 207.235 151.799 207.096C151.554 206.957 151.303 206.888 151.047 206.888C150.706 206.888 150.434 206.952 150.231 207.08C150.039 207.208 149.943 207.379 149.943 207.592C149.943 207.805 150.05 207.971 150.263 208.088C150.477 208.205 150.861 208.36 151.415 208.552C151.927 208.733 152.349 208.909 152.679 209.08C153.021 209.24 153.314 209.469 153.559 209.768C153.815 210.067 153.943 210.44 153.943 210.888C153.943 211.581 153.666 212.141 153.111 212.568C152.557 212.984 151.831 213.192 150.935 213.192C150.338 213.192 149.757 213.021 149.191 212.68C148.626 212.328 148.205 211.864 147.927 211.288L149.255 210.52ZM159.247 213.176C158.532 213.176 157.898 213.016 157.343 212.696C156.788 212.365 156.351 211.912 156.031 211.336C155.722 210.749 155.567 210.088 155.567 209.352C155.567 208.605 155.722 207.944 156.031 207.368C156.351 206.781 156.788 206.328 157.343 206.008C157.898 205.677 158.532 205.512 159.247 205.512C160.239 205.512 160.98 205.763 161.471 206.264C161.962 206.755 162.276 207.192 162.415 207.576C162.639 208.099 162.751 208.723 162.751 209.448L162.735 210.008H157.231C157.327 210.52 157.567 210.936 157.951 211.256C158.335 211.576 158.767 211.736 159.247 211.736C159.791 211.736 160.212 211.629 160.511 211.416C160.81 211.203 161.023 210.989 161.151 210.776L162.511 211.384C162.298 211.875 161.908 212.296 161.343 212.648C160.788 213 160.09 213.176 159.247 213.176ZM161.135 208.664C161.05 208.152 160.852 207.741 160.543 207.432C160.234 207.112 159.802 206.952 159.247 206.952C158.746 206.952 158.308 207.112 157.935 207.432C157.562 207.752 157.327 208.163 157.231 208.664H161.135ZM167.934 213.208C167.24 213.208 166.616 213.043 166.062 212.712C165.507 212.381 165.075 211.928 164.766 211.352C164.456 210.765 164.302 210.099 164.302 209.352C164.302 208.605 164.456 207.944 164.766 207.368C165.075 206.781 165.507 206.323 166.062 205.992C166.616 205.661 167.24 205.496 167.934 205.496C168.296 205.496 168.68 205.587 169.086 205.768C169.502 205.949 169.859 206.237 170.158 206.632V201.704H171.854V213.144H170.158V212.072C169.848 212.456 169.486 212.744 169.07 212.936C168.664 213.117 168.286 213.208 167.934 213.208ZM168.046 211.784C168.43 211.784 168.782 211.677 169.102 211.464C169.422 211.251 169.678 210.963 169.87 210.6C170.062 210.227 170.158 209.816 170.158 209.368C170.158 208.931 170.062 208.525 169.87 208.152C169.678 207.779 169.416 207.485 169.086 207.272C168.766 207.059 168.419 206.952 168.046 206.952C167.427 206.952 166.931 207.176 166.558 207.624C166.184 208.061 165.998 208.643 165.998 209.368C165.998 210.093 166.184 210.68 166.558 211.128C166.931 211.565 167.427 211.784 168.046 211.784ZM174.871 215.208H173.607L174.215 211.528H175.959L174.871 215.208ZM26.272 232.128H24.56V226.8H18.992V232.128H17.296V220.32H18.992V225.328H24.56V220.32H26.272V232.128ZM31.9488 232.208C31.2554 232.208 30.6314 232.043 30.0768 231.712C29.5328 231.381 29.1061 230.928 28.7968 230.352C28.4874 229.765 28.3328 229.104 28.3328 228.368C28.3328 227.632 28.4874 226.976 28.7968 226.4C29.1061 225.813 29.5328 225.355 30.0768 225.024C30.6314 224.693 31.2554 224.528 31.9488 224.528C32.3434 224.528 32.7328 224.619 33.1168 224.8C33.5008 224.981 33.8421 225.248 34.1408 225.6V224.512H35.8368V232.144H34.1408V231.12C33.8528 231.483 33.5168 231.755 33.1328 231.936C32.7488 232.117 32.3541 232.208 31.9488 232.208ZM32.0608 230.768C32.4341 230.768 32.7808 230.667 33.1008 230.464C33.4208 230.251 33.6768 229.963 33.8688 229.6C34.0608 229.227 34.1568 228.816 34.1568 228.368C34.1568 227.92 34.0608 227.515 33.8688 227.152C33.6768 226.779 33.4208 226.491 33.1008 226.288C32.7808 226.075 32.4341 225.968 32.0608 225.968C31.4528 225.968 30.9621 226.187 30.5888 226.624C30.2154 227.061 30.0288 227.643 30.0288 228.368C30.0288 229.083 30.2154 229.664 30.5888 230.112C30.9621 230.549 31.4528 230.768 32.0608 230.768ZM42.0791 232.144H40.6071L37.4071 224.512H39.2631L41.3431 229.856L43.4391 224.512H45.3111L42.0791 232.144ZM49.6065 232.176C48.8918 232.176 48.2572 232.016 47.7025 231.696C47.1478 231.365 46.7105 230.912 46.3905 230.336C46.0812 229.749 45.9265 229.088 45.9265 228.352C45.9265 227.605 46.0812 226.944 46.3905 226.368C46.7105 225.781 47.1478 225.328 47.7025 225.008C48.2572 224.677 48.8918 224.512 49.6065 224.512C50.5985 224.512 51.3398 224.763 51.8305 225.264C52.3212 225.755 52.6358 226.192 52.7745 226.576C52.9985 227.099 53.1105 227.723 53.1105 228.448L53.0945 229.008H47.5905C47.6865 229.52 47.9265 229.936 48.3105 230.256C48.6945 230.576 49.1265 230.736 49.6065 230.736C50.1505 230.736 50.5718 230.629 50.8705 230.416C51.1692 230.203 51.3825 229.989 51.5105 229.776L52.8705 230.384C52.6572 230.875 52.2678 231.296 51.7025 231.648C51.1478 232 50.4492 232.176 49.6065 232.176ZM51.4945 227.664C51.4092 227.152 51.2118 226.741 50.9025 226.432C50.5932 226.112 50.1612 225.952 49.6065 225.952C49.1052 225.952 48.6678 226.112 48.2945 226.432C47.9212 226.752 47.6865 227.163 47.5905 227.664H51.4945ZM60.3424 228.768C60.6837 229.429 61.089 229.931 61.5584 230.272C62.0384 230.613 62.545 230.784 63.0784 230.784C63.8144 230.784 64.385 230.619 64.7904 230.288C65.1957 229.947 65.3984 229.493 65.3984 228.928C65.3984 228.555 65.2864 228.24 65.0624 227.984C64.849 227.728 64.577 227.525 64.2464 227.376C63.9264 227.216 63.4784 227.029 62.9024 226.816C62.1664 226.549 61.569 226.293 61.1104 226.048C60.6517 225.803 60.2624 225.456 59.9424 225.008C59.6224 224.56 59.4624 223.984 59.4624 223.28C59.4624 222.651 59.6224 222.101 59.9424 221.632C60.2624 221.163 60.705 220.805 61.2704 220.56C61.8357 220.315 62.481 220.192 63.2064 220.192C64.0277 220.192 64.7637 220.421 65.4144 220.88C66.0757 221.328 66.5664 222 66.8864 222.896L65.3664 223.44C65.1637 222.853 64.8757 222.416 64.5024 222.128C64.129 221.829 63.7077 221.675 63.2384 221.664C62.609 221.664 62.1024 221.813 61.7184 222.112C61.345 222.4 61.1584 222.789 61.1584 223.28C61.1584 223.653 61.265 223.968 61.4784 224.224C61.7024 224.48 61.9797 224.693 62.3104 224.864C62.6517 225.024 63.105 225.211 63.6704 225.424C64.4064 225.712 64.9984 225.979 65.4464 226.224C65.8944 226.469 66.2784 226.816 66.5984 227.264C66.9184 227.701 67.0784 228.261 67.0784 228.944C67.0784 229.595 66.9184 230.171 66.5984 230.672C66.2784 231.173 65.8144 231.563 65.2064 231.84C64.609 232.117 63.905 232.256 63.0944 232.256C62.2304 232.256 61.4464 232.027 60.7424 231.568C60.0384 231.099 59.4357 230.427 58.9344 229.552L60.3424 228.768ZM72.5284 230.752C73.1257 230.752 73.6057 230.533 73.9684 230.096C74.331 229.659 74.5124 229.077 74.5124 228.352C74.5124 227.637 74.331 227.061 73.9684 226.624C73.6057 226.176 73.1257 225.952 72.5284 225.952C71.931 225.952 71.451 226.171 71.0884 226.608C70.7257 227.045 70.5444 227.627 70.5444 228.352C70.5444 229.077 70.7257 229.659 71.0884 230.096C71.451 230.533 71.931 230.752 72.5284 230.752ZM72.5284 224.496C73.243 224.496 73.8777 224.661 74.4324 224.992C74.987 225.323 75.419 225.781 75.7284 226.368C76.0484 226.944 76.2084 227.605 76.2084 228.352C76.2084 229.088 76.0484 229.749 75.7284 230.336C75.419 230.923 74.987 231.381 74.4324 231.712C73.8777 232.043 73.243 232.208 72.5284 232.208C71.8137 232.208 71.179 232.043 70.6244 231.712C70.0697 231.381 69.6324 230.923 69.3124 230.336C69.003 229.749 68.8484 229.088 68.8484 228.352C68.8484 227.605 69.003 226.944 69.3124 226.368C69.6324 225.781 70.0697 225.323 70.6244 224.992C71.179 224.661 71.8137 224.496 72.5284 224.496ZM87.6296 227.808C87.6296 227.264 87.4963 226.827 87.2296 226.496C86.963 226.165 86.611 226 86.1736 226C85.6936 226 85.299 226.165 84.9896 226.496C84.691 226.827 84.5416 227.237 84.5416 227.728V232.144H82.8296V227.808C82.8296 227.264 82.6963 226.827 82.4296 226.496C82.1736 226.165 81.8323 226 81.4056 226C80.9256 226 80.5256 226.181 80.2056 226.544C79.8963 226.907 79.7416 227.36 79.7416 227.904V232.144H78.0456V224.512H79.7416V225.552C79.9763 225.243 80.2483 224.997 80.5576 224.816C80.8776 224.624 81.2136 224.528 81.5656 224.528C82.0136 224.528 82.4456 224.656 82.8616 224.912C83.2776 225.168 83.5976 225.499 83.8216 225.904C84.0883 225.499 84.451 225.168 84.9096 224.912C85.3683 224.656 85.827 224.528 86.2856 224.528C86.883 224.528 87.411 224.667 87.8696 224.944C88.339 225.221 88.7016 225.605 88.9576 226.096C89.2136 226.576 89.3416 227.125 89.3416 227.744V232.144H87.6296V227.808ZM94.8878 232.176C94.1731 232.176 93.5384 232.016 92.9838 231.696C92.4291 231.365 91.9918 230.912 91.6718 230.336C91.3624 229.749 91.2078 229.088 91.2078 228.352C91.2078 227.605 91.3624 226.944 91.6718 226.368C91.9918 225.781 92.4291 225.328 92.9838 225.008C93.5384 224.677 94.1731 224.512 94.8878 224.512C95.8798 224.512 96.6211 224.763 97.1118 225.264C97.6024 225.755 97.9171 226.192 98.0558 226.576C98.2798 227.099 98.3918 227.723 98.3918 228.448L98.3758 229.008H92.8718C92.9678 229.52 93.2078 229.936 93.5918 230.256C93.9758 230.576 94.4078 230.736 94.8878 230.736C95.4318 230.736 95.8531 230.629 96.1518 230.416C96.4504 230.203 96.6638 229.989 96.7918 229.776L98.1518 230.384C97.9384 230.875 97.5491 231.296 96.9838 231.648C96.4291 232 95.7304 232.176 94.8878 232.176ZM96.7758 227.664C96.6904 227.152 96.4931 226.741 96.1838 226.432C95.8744 226.112 95.4424 225.952 94.8878 225.952C94.3864 225.952 93.9491 226.112 93.5758 226.432C93.2024 226.752 92.9678 227.163 92.8718 227.664H96.7758ZM101.184 230.384C101.472 230.384 101.707 230.48 101.888 230.672C102.069 230.853 102.16 231.088 102.16 231.376C102.16 231.675 102.069 231.915 101.888 232.096C101.707 232.288 101.472 232.384 101.184 232.384C100.885 232.384 100.64 232.288 100.448 232.096C100.267 231.915 100.176 231.675 100.176 231.376C100.176 231.088 100.267 230.853 100.448 230.672C100.64 230.48 100.885 230.384 101.184 230.384ZM105.637 230.384C105.925 230.384 106.16 230.48 106.341 230.672C106.523 230.853 106.613 231.088 106.613 231.376C106.613 231.675 106.523 231.915 106.341 232.096C106.16 232.288 105.925 232.384 105.637 232.384C105.339 232.384 105.093 232.288 104.901 232.096C104.72 231.915 104.629 231.675 104.629 231.376C104.629 231.088 104.72 230.853 104.901 230.672C105.093 230.48 105.339 230.384 105.637 230.384ZM110.09 230.384C110.378 230.384 110.613 230.48 110.794 230.672C110.976 230.853 111.066 231.088 111.066 231.376C111.066 231.675 110.976 231.915 110.794 232.096C110.613 232.288 110.378 232.384 110.09 232.384C109.792 232.384 109.546 232.288 109.354 232.096C109.173 231.915 109.082 231.675 109.082 231.376C109.082 231.088 109.173 230.853 109.354 230.672C109.546 230.48 109.792 230.384 110.09 230.384Z" fill="white"/>
<path d="M194.93 45.2227C194.734 45.2227 194.5 45.1523 194.227 45.0117C193.953 44.8711 193.684 44.7109 193.418 44.5312C191.27 43.125 189.395 41.6445 187.793 40.0898C186.191 38.5273 184.949 36.9219 184.066 35.2734C183.184 33.6172 182.742 31.9531 182.742 30.2812C182.742 29.125 182.926 28.0781 183.293 27.1406C183.66 26.1953 184.168 25.3828 184.816 24.7031C185.473 24.0234 186.223 23.5 187.066 23.1328C187.91 22.7656 188.812 22.582 189.773 22.582C190.977 22.582 192.008 22.8828 192.867 23.4844C193.734 24.0781 194.422 24.8516 194.93 25.8047C195.445 24.8516 196.133 24.0781 196.992 23.4844C197.859 22.8828 198.891 22.582 200.086 22.582C201.047 22.582 201.949 22.7656 202.793 23.1328C203.645 23.5 204.395 24.0234 205.043 24.7031C205.691 25.3828 206.199 26.1953 206.566 27.1406C206.941 28.0781 207.129 29.125 207.129 30.2812C207.129 31.9531 206.684 33.6172 205.793 35.2734C204.91 36.9219 203.668 38.5273 202.066 40.0898C200.473 41.6445 198.602 43.125 196.453 44.5312C196.18 44.7109 195.906 44.8711 195.633 45.0117C195.367 45.1523 195.133 45.2227 194.93 45.2227Z" fill="white"/>
<path d="M188.536 58.364C188.752 58.148 189.108 57.808 189.604 57.344C190.316 56.672 190.892 56.108 191.332 55.652C191.772 55.196 192.148 54.728 192.46 54.248C192.772 53.76 192.928 53.308 192.928 52.892C192.928 52.3 192.76 51.816 192.424 51.44C192.096 51.064 191.664 50.876 191.128 50.876C190.752 50.876 190.384 51.008 190.024 51.272C189.672 51.528 189.408 51.864 189.232 52.28L188.572 52.004C188.796 51.484 189.144 51.06 189.616 50.732C190.096 50.404 190.6 50.24 191.128 50.24C191.616 50.24 192.052 50.352 192.436 50.576C192.82 50.8 193.116 51.116 193.324 51.524C193.54 51.924 193.648 52.38 193.648 52.892C193.648 53.396 193.484 53.92 193.156 54.464C192.828 55 192.432 55.508 191.968 55.988C191.512 56.468 190.916 57.052 190.18 57.74L189.508 58.364H193.78V59.012H188.644L188.536 58.364ZM197.774 54.188L201.326 59H200.414L197.282 54.74L196.214 55.916V59H195.494V50.348H196.214V54.836L200.258 50.336H201.23L197.774 54.188Z" fill="white"/>
<path d="M132.599 122.853C124.313 119.886 92.7453 105.287 97.4816 138.826C98.6517 147.112 103.182 163.075 132.599 155.633" stroke="#FFFDF0" stroke-width="11.8373"/>
<path fill-rule="evenodd" clip-rule="evenodd" d="M228.001 105.307H120.676L128.078 156.603H128.093C130.788 171.709 150.465 183.434 174.338 183.434C198.212 183.434 217.889 171.709 220.584 156.603H220.599L228.001 105.307Z" fill="url(#paint0_linear_46_1696)"/>
<ellipse cx="174.337" cy="105.702" rx="53.6626" ry="21.7018" fill="url(#paint1_linear_46_1696)"/>
<ellipse cx="173.943" cy="114.382" rx="39.8524" ry="13.0211" fill="#473529"/>
<path d="M224.843 105.702C224.843 107.564 223.923 109.647 221.601 111.868C219.271 114.095 215.732 116.247 211.099 118.121C201.849 121.862 188.853 124.247 174.337 124.247C159.821 124.247 146.825 121.862 137.575 118.121C132.942 116.247 129.403 114.095 127.073 111.868C124.751 109.647 123.831 107.564 123.831 105.702C123.831 103.84 124.751 101.756 127.073 99.536C129.403 97.3082 132.942 95.1564 137.575 93.2827C146.825 89.5419 159.821 87.1566 174.337 87.1566C188.853 87.1566 201.849 89.5419 211.099 93.2827C215.732 95.1564 219.271 97.3082 221.601 99.536C223.923 101.756 224.843 103.84 224.843 105.702Z" stroke="url(#paint2_linear_46_1696)" stroke-width="6.31325"/>
<path d="M69.9491 112.193L69.949 112.194C68.4837 112.805 67.3494 113.504 66.4266 114.427C65.5038 115.349 64.805 116.484 64.1935 117.949L64.1935 117.949C63.7484 119.017 62.2516 119.017 61.8065 117.949L61.8065 117.949C61.195 116.484 60.4962 115.349 59.5734 114.427C58.6506 113.504 57.5163 112.805 56.051 112.194L56.0509 112.193C54.983 111.748 54.983 110.252 56.0509 109.807L56.051 109.806C57.5163 109.195 58.6506 108.496 59.5734 107.573C60.4962 106.651 61.195 105.516 61.8065 104.051L61.8065 104.051C62.2516 102.983 63.7484 102.983 64.1935 104.051L64.1935 104.051C64.805 105.516 65.5038 106.651 66.4266 107.573C67.3494 108.496 68.4837 109.195 69.949 109.806L69.9491 109.807C71.017 110.252 71.017 111.748 69.9491 112.193Z" fill="#FFC37B" stroke="#FFC37B" stroke-width="0.5"/>
<path d="M86.7658 91.5514L86.7657 91.5514C85.0287 92.3144 83.6874 93.185 82.5978 94.332C81.5085 95.4786 80.6826 96.8889 79.9589 98.7144L79.9589 98.7145C79.4122 100.095 77.5878 100.095 77.0411 98.7145L77.0411 98.7144C76.3174 96.8889 75.4915 95.4786 74.4022 94.332C73.3126 93.185 71.9713 92.3144 70.2343 91.5514L70.2342 91.5514C68.9219 90.9757 68.9219 89.0243 70.2342 88.4486L70.2343 88.4486C71.9713 87.6856 73.3126 86.815 74.4022 85.668C75.4915 84.5214 76.3174 83.1111 77.0411 81.2856L77.0411 81.2855C77.5878 79.9048 79.4122 79.9048 79.9589 81.2855L79.9589 81.2856C80.6826 83.1111 81.5085 84.5214 82.5978 85.668C83.6874 86.815 85.0287 87.6856 86.7657 88.4486L86.7658 88.4486C88.0781 89.0243 88.0781 90.9757 86.7658 91.5514Z" fill="#FFC37B" stroke="#FFC37B" stroke-width="0.5"/>
<path d="M162.142 63C158.642 67 158.862 69.9992 159.142 72.5C159.565 76.2839 162.671 78.2946 163.991 81.6867C165.315 85.0911 165.601 88.7532 164.515 92.3238C163.502 95.6504 161.517 98.5 161.517 102.67" stroke="url(#paint3_linear_46_1696)" stroke-width="3" stroke-linecap="round"/>
<path d="M174.284 63C170.784 67 171.003 69.9992 171.283 72.5C171.707 76.2839 174.813 78.2946 176.132 81.6867C177.456 85.0911 177.743 88.7532 176.656 92.3238C175.644 95.6504 173.659 98.5 173.659 102.67" stroke="url(#paint4_linear_46_1696)" stroke-width="3" stroke-linecap="round"/>
<path d="M186.284 63C182.784 67 183.003 69.9992 183.283 72.5C183.707 76.2839 186.813 78.2946 188.132 81.6867C189.456 85.0911 189.743 88.7532 188.656 92.3238C187.644 95.6504 185.659 98.5 185.659 102.67" stroke="url(#paint5_linear_46_1696)" stroke-width="3" stroke-linecap="round"/>
</g>
<defs>
<linearGradient id="paint0_linear_46_1696" x1="149.875" y1="129.377" x2="217.347" y2="163.705" gradientUnits="userSpaceOnUse">
<stop stop-color="#FFFDF0"/>
<stop offset="0.425" stop-color="#CAC9BF"/>
<stop offset="0.695" stop-color="#C5C4BB"/>
<stop offset="1" stop-color="#C9C7B7"/>
</linearGradient>
<linearGradient id="paint1_linear_46_1696" x1="174.337" y1="90.3133" x2="174.337" y2="127.404" gradientUnits="userSpaceOnUse">
<stop stop-color="#B7B5A8"/>
<stop offset="0.465" stop-color="#D9D9D9"/>
<stop offset="0.99" stop-color="#D0D0D0"/>
</linearGradient>
<linearGradient id="paint2_linear_46_1696" x1="174.337" y1="84" x2="222.87" y2="118.723" gradientUnits="userSpaceOnUse">
<stop stop-color="#FFFDF0"/>
<stop offset="0.475" stop-color="#D5D1CA"/>
</linearGradient>
<linearGradient id="paint3_linear_46_1696" x1="162.091" y1="63" x2="162.091" y2="102.67" gradientUnits="userSpaceOnUse">
<stop stop-color="white" stop-opacity="0"/>
<stop offset="0.505" stop-color="white" stop-opacity="0.7"/>
<stop offset="1" stop-color="white" stop-opacity="0"/>
</linearGradient>
<linearGradient id="paint4_linear_46_1696" x1="174.233" y1="63" x2="174.233" y2="102.67" gradientUnits="userSpaceOnUse">
<stop stop-color="white" stop-opacity="0"/>
<stop offset="0.505" stop-color="white" stop-opacity="0.7"/>
<stop offset="1" stop-color="white" stop-opacity="0"/>
</linearGradient>
<linearGradient id="paint5_linear_46_1696" x1="186.233" y1="63" x2="186.233" y2="102.67" gradientUnits="userSpaceOnUse">
<stop stop-color="white" stop-opacity="0"/>
<stop offset="0.505" stop-color="white" stop-opacity="0.7"/>
<stop offset="1" stop-color="white" stop-opacity="0"/>
</linearGradient>
<clipPath id="clip0_46_1696">
<rect width="223" height="254" rx="10" fill="white"/>
</clipPath>
</defs>
</svg>
